<svg width="47" height="47" viewBox="0 0 47 47" fill="none" xmlns="http://www.w3.org/2000/svg">
<circle cx="23.5" cy="23.5" r="23.5" fill="white"/>
<path d="M16 22.7043C15.5499 22.7043 15.1851 23.0692 15.1851 23.5192C15.1851 23.9693 15.5499 24.3341 16 24.3341H29.7778L24.6161 29.4602C24.2967 29.7774 24.295 30.2933 24.6121 30.6127C24.9292 30.932 25.4452 30.9338 25.7645 30.6167L32.329 24.0974C32.3324 24.0941 32.3358 24.0907 32.3392 24.0872C32.4129 24.0114 32.4688 23.925 32.5072 23.8328C32.5475 23.7363 32.5697 23.6301 32.5697 23.5189C32.5697 23.505 32.5693 23.491 32.5686 23.477C32.5639 23.3855 32.5438 23.2946 32.5084 23.2086C32.508 23.2076 32.5076 23.2067 32.5072 23.2057C32.4874 23.1582 32.463 23.1123 32.4339 23.0685C32.4039 23.0234 32.369 22.9807 32.329 22.941L25.7645 16.4218C25.4452 16.1046 24.9292 16.1064 24.6121 16.4258C24.295 16.7451 24.2967 17.2611 24.6161 17.5782L29.7778 22.7043H16Z" fill="white" stroke="#5D8FFE" stroke-width="1.62981" stroke-linecap="round" stroke-linejoin="round"/>
</svg>
