<svg width="103" height="103" viewBox="0 0 103 103" fill="none" xmlns="http://www.w3.org/2000/svg">
<path d="M65.4192 82.1217H37.5813C37.2122 82.1217 36.8581 81.9751 36.5971 81.7141C36.3361 81.453 36.1894 81.099 36.1894 80.7298V70.8056C30.7674 67.4715 26.5819 62.4587 24.2688 56.5287C21.9557 50.5987 21.6416 44.0758 23.374 37.951C25.1065 31.8261 28.7909 26.4342 33.8674 22.5945C38.944 18.7547 45.1351 16.677 51.5002 16.677C57.8654 16.677 64.0565 18.7547 69.1331 22.5945C74.2096 26.4342 77.894 31.8261 79.6264 37.951C81.3589 44.0758 81.0447 50.5987 78.7317 56.5287C76.4186 62.4587 72.2331 67.4715 66.8111 70.8056V80.7298C66.8111 81.099 66.6644 81.453 66.4034 81.7141C66.1424 81.9751 65.7883 82.1217 65.4192 82.1217ZM38.9732 79.3379H64.0273V70.0123C64.0275 69.7682 64.092 69.5285 64.2141 69.3171C64.3363 69.1058 64.5118 68.9303 64.7232 68.8083C69.7649 65.8975 73.7053 61.4044 75.9331 56.0258C78.161 50.6473 78.5518 44.684 77.0451 39.0607C75.5383 33.4374 72.2182 28.4684 67.5995 24.9244C62.9809 21.3804 57.3219 19.4595 51.5002 19.4595C45.6786 19.4595 40.0196 21.3804 35.401 24.9244C30.7823 28.4684 27.4622 33.4374 25.9554 39.0607C24.4487 44.684 24.8395 50.6473 27.0674 56.0258C29.2952 61.4044 33.2356 65.8975 38.2773 68.8083C38.4887 68.9303 38.6642 69.1058 38.7864 69.3171C38.9085 69.5285 38.973 69.7682 38.9732 70.0123V79.3379Z" fill="black"/>
<path d="M51.4997 100.216C48.1786 100.212 44.9946 98.8911 42.6462 96.5427C40.2978 94.1943 38.9767 91.0103 38.9727 87.6892V80.7297H41.7564V87.6892C41.7564 90.2733 42.783 92.7515 44.6102 94.5787C46.4374 96.4059 48.9156 97.4324 51.4997 97.4324C54.0838 97.4324 56.562 96.4059 58.3892 94.5787C60.2164 92.7515 61.2429 90.2733 61.2429 87.6892V80.7297H64.0267V87.6892C64.0227 91.0103 62.7015 94.1943 60.3532 96.5427C58.0048 98.8911 54.8208 100.212 51.4997 100.216Z" fill="black"/>
<path d="M62.6351 84.9055H66.8107V87.6893H62.6351V84.9055ZM36.1891 84.9055H40.3648V87.6893H36.1891V84.9055ZM50.108 4.17578H52.8918V13.919H50.108V4.17578ZM29.4148 10.4643L31.8255 9.07246L36.6971 17.5101L34.2864 18.902L29.4148 10.4643ZM14.6398 26.2609L16.0317 23.8502L24.4694 28.7218L23.0775 31.1326L14.6398 26.2609ZM9.74316 44.5406H19.4864V47.3244H9.74316V44.5406ZM14.644 65.6L23.0817 60.7283L24.4736 63.1391L16.0359 68.0107L14.644 65.6ZM66.3055 17.5171L71.1771 9.07942L73.5878 10.4713L68.7162 18.909L66.3055 17.5171ZM78.5263 28.7121L86.9639 23.8404L88.3558 26.2512L79.9182 31.1228L78.5263 28.7121ZM83.5134 44.5406H93.2567V47.3244H83.5134V44.5406ZM78.5277 63.1502L79.9196 60.7381L88.3572 65.6097L86.9653 68.0205L78.5277 63.1502ZM58.4594 80.7298H55.6756V62.6352C55.6732 62.4199 55.7209 62.2069 55.8148 62.0131L60.7991 52.0471C58.7309 51.0895 56.3689 50.9845 54.2239 51.7548C52.4538 52.3617 50.5321 52.3617 48.7621 51.7548C46.6173 50.9825 44.2545 51.0876 42.1868 52.0471L47.1711 62.0131C47.2699 62.2057 47.3223 62.4188 47.3242 62.6352V80.7298H44.5405V62.9637L39.119 52.1223C38.9734 51.8307 38.9348 51.4972 39.0098 51.18C39.0848 50.8628 39.2688 50.582 39.5296 50.3866C41.0023 49.3903 42.6895 48.756 44.4538 48.5354C46.2181 48.3148 48.0095 48.5142 49.6821 49.1172C50.864 49.5222 52.147 49.5222 53.3289 49.1172C55.0001 48.5169 56.7893 48.319 58.5513 48.5396C60.3133 48.7601 61.9985 49.3929 63.4702 50.3866C63.7288 50.5826 63.9108 50.8627 63.9847 51.1786C64.0587 51.4945 64.0199 51.8263 63.8752 52.1167L58.4594 62.9637V80.7298Z" fill="black"/>
</svg>
