<svg width="121" height="132" viewBox="0 0 121 132" fill="none" xmlns="http://www.w3.org/2000/svg">
<g filter="url(#filter0_d_258_406)">
<path d="M78.0711 32.3151L78.0914 32.3309L78.1131 32.3445C80.9844 34.142 85.0152 37.6736 87.7389 40.4431L91.3926 44.1585C97.1802 50.0437 100.5 58.4675 100.5 67.3246V69.8637C100.5 73.8827 99.9206 77.8742 98.7854 81.6785L98.7854 81.6787L98.5485 82.4739C98.5485 82.4739 98.5485 82.474 98.5485 82.4741C94.5496 95.8763 84.879 106.041 72.877 109.538L73.0169 110.018L72.877 109.538L72.4426 109.665C67.0222 111.244 61.361 111.425 55.8723 110.193L54.7744 109.947C34.8978 105.486 20.5 85.6392 20.5 62.4881L20.5 58.7298C20.5 53.3278 21.5188 47.9901 23.4861 43.077L25.7511 37.4205C29.7677 27.3898 38.5443 21 48.1624 21L51.5068 21C54.2033 21 57.4869 21.3385 60.636 22.0388C63.7863 22.7394 66.7612 23.7932 68.8764 25.2024C72.8919 28.2189 73.6046 28.7865 74.8852 29.8065C75.5775 30.3578 76.4357 31.0413 78.0711 32.3151Z" stroke="#A7CF39" shape-rendering="crispEdges"/>
</g>
<path d="M44.4725 46.7868C44.4087 46.6747 44.3919 46.542 44.4257 46.4176C44.4595 46.2931 44.5411 46.1871 44.6528 46.1226C44.7644 46.0582 44.8971 46.0405 45.0217 46.0734C45.1464 46.1064 45.253 46.1873 45.3182 46.2985L47.0794 49.349C47.1431 49.4611 47.1599 49.5939 47.1261 49.7183C47.0924 49.8427 47.0107 49.9488 46.8991 50.0132C46.7874 50.0777 46.6548 50.0954 46.5301 50.0624C46.4055 50.0295 46.2989 49.9486 46.2337 49.8373L44.4725 46.7868ZM39.5961 61.334H36.0737C35.9442 61.334 35.82 61.3854 35.7285 61.477C35.6369 61.5686 35.5854 61.6928 35.5854 61.8223C35.5854 61.9518 35.6369 62.076 35.7285 62.1675C35.82 62.2591 35.9442 62.3106 36.0737 62.3106H39.5961C39.7256 62.3106 39.8498 62.2591 39.9414 62.1675C40.0329 62.076 40.0844 61.9518 40.0844 61.8223C40.0844 61.6928 40.0329 61.5686 39.9414 61.477C39.8498 61.3854 39.7256 61.334 39.5961 61.334ZM65.9465 55.2502C66.0293 55.2502 66.1133 55.2291 66.1901 55.1847L69.2406 53.4234C69.3519 53.3582 69.4328 53.2517 69.4657 53.127C69.4987 53.0024 69.481 52.8697 69.4165 52.7581C69.3521 52.6464 69.2461 52.5648 69.1216 52.531C68.9972 52.4972 68.8644 52.514 68.7523 52.5777L65.7019 54.339C65.6086 54.3927 65.5357 54.4757 65.4945 54.5751C65.4533 54.6745 65.4461 54.7847 65.474 54.8886C65.5019 54.9925 65.5633 55.0843 65.6488 55.1497C65.7342 55.2151 65.8389 55.2504 65.9465 55.2502ZM60.5333 50.016C60.5888 50.0481 60.6501 50.0689 60.7137 50.0773C60.7773 50.0857 60.8419 50.0814 60.9038 50.0648C60.9658 50.0483 61.0238 50.0196 61.0747 49.9806C61.1256 49.9415 61.1682 49.8929 61.2003 49.8373L62.9615 46.7868C62.9941 46.7313 63.0153 46.6698 63.0241 46.606C63.0328 46.5422 63.0288 46.4773 63.0124 46.4151C62.9959 46.3528 62.9673 46.2944 62.9282 46.2433C62.8891 46.1921 62.8402 46.1492 62.7844 46.117C62.7287 46.0848 62.6671 46.064 62.6032 46.0557C62.5394 46.0474 62.4745 46.0518 62.4124 46.0687C62.3502 46.0855 62.292 46.1145 62.2411 46.154C62.1902 46.1934 62.1476 46.2426 62.1158 46.2985L60.3546 49.349C60.3225 49.4046 60.3017 49.4659 60.2933 49.5294C60.2849 49.593 60.2892 49.6576 60.3058 49.7196C60.3224 49.7815 60.351 49.8396 60.39 49.8904C60.4291 49.9413 60.4778 49.984 60.5333 50.016ZM53.717 48.1896C53.7811 48.1896 53.8446 48.1769 53.9039 48.1524C53.9631 48.1279 54.0169 48.0919 54.0623 48.0465C54.1076 48.0012 54.1436 47.9474 54.1681 47.8881C54.1926 47.8289 54.2053 47.7654 54.2053 47.7013V44.179C54.2053 44.0495 54.1538 43.9253 54.0623 43.8337C53.9707 43.7422 53.8465 43.6907 53.717 43.6907C53.5875 43.6907 53.4633 43.7422 53.3717 43.8337C53.2802 43.9253 53.2287 44.0495 53.2287 44.179V47.7014C53.2287 47.8309 53.2802 47.9551 53.3717 48.0466C53.4633 48.1382 53.5875 48.1896 53.717 48.1896ZM41.732 54.3389L38.6815 52.5776C38.5695 52.5139 38.4367 52.4971 38.3123 52.5309C38.1878 52.5647 38.0818 52.6463 38.0173 52.758C37.9529 52.8696 37.9352 53.0023 37.9681 53.1269C38.0011 53.2516 38.082 53.3581 38.1933 53.4234L41.2438 55.1846C41.2993 55.2167 41.3606 55.2375 41.4242 55.2459C41.4877 55.2543 41.5523 55.25 41.6143 55.2334C41.6762 55.2168 41.7343 55.1882 41.7852 55.1492C41.836 55.1101 41.8787 55.0614 41.9107 55.0059C41.9428 54.9503 41.9636 54.889 41.972 54.8255C41.9804 54.7619 41.9762 54.6973 41.9596 54.6354C41.943 54.5734 41.9143 54.5154 41.8753 54.4645C41.8362 54.4136 41.7876 54.3709 41.732 54.3389ZM83.1351 88.967C82.7487 89.191 82.3101 89.3091 81.8635 89.3093C81.6371 89.3091 81.4118 89.2792 81.1932 89.2204C80.5311 89.043 79.9788 88.6202 79.6381 88.0301L76.1645 82.0135C76.0997 81.9013 76.0821 81.7681 76.1156 81.643C76.1474 81.5267 76.2211 81.4263 76.3225 81.3612L75.198 79.4137C73.9922 79.8408 72.709 80.0708 71.3969 80.0708C70.4203 80.0708 69.4286 79.9445 68.4414 79.68C64.7696 78.6961 61.9943 76.0208 60.7273 72.7168C59.9491 74.2847 59.5701 75.965 59.5701 77.8524V81.4031C59.5701 81.5326 59.5187 81.6568 59.4271 81.7484C59.3355 81.84 59.2113 81.8914 59.0818 81.8914H57.1541C56.9159 83.5755 55.4657 84.8753 53.717 84.8753C51.9683 84.8753 50.5181 83.5755 50.2799 81.8914H48.3521C48.2226 81.8914 48.0985 81.84 48.0069 81.7484C47.9153 81.6568 47.8639 81.5326 47.8639 81.4031V77.8524C47.8639 75.948 47.4786 74.2542 46.6861 72.6744C46.0545 71.4151 45.4294 70.4484 44.8249 69.5137C44.1901 68.5321 43.5906 67.6051 43.1131 66.511C41.4587 62.7207 41.6904 58.7435 43.7489 55.5989C45.8362 52.4104 49.4695 50.5816 53.717 50.5816C56.7495 50.5816 59.4664 51.5019 61.5737 53.243C63.3866 54.7408 64.6355 56.7924 65.1475 59.08C67.7756 57.3633 71.0939 56.7263 74.3576 57.6008C80.4448 59.2319 84.0702 65.5112 82.4392 71.5984C81.8193 73.9116 80.5268 75.8675 78.83 77.3164L79.9546 79.2644C80.1847 79.1473 80.4681 79.2274 80.5984 79.4534L84.0721 85.4699C84.7778 86.6925 84.3574 88.2612 83.1351 88.967ZM56.1643 81.8914H51.2696C51.4974 83.0345 52.508 83.8987 53.7169 83.8987C54.9258 83.8987 55.9365 83.0345 56.1642 81.8914H56.1643ZM58.5936 80.9149V78.3406H48.8403V80.9149H58.5936ZM60.3126 71.4048C59.8549 69.5822 59.8399 67.6227 60.3599 65.6823C61.0169 63.2301 62.4287 61.1778 64.278 59.7073C63.4153 54.8215 59.2086 51.5581 53.717 51.5581C49.8049 51.5581 46.4695 53.2259 44.5659 56.1337C42.6912 58.9976 42.4879 62.6374 44.0081 66.1202C44.4538 67.1414 45.0058 67.9949 45.6449 68.9833C46.2349 69.8955 46.9035 70.9295 47.5591 72.2364C48.3407 73.7947 48.7672 75.5178 48.831 77.364H53.2287V68.6798L50.5107 65.6199C50.4248 65.5231 50.3808 65.3961 50.3885 65.2668C50.3961 65.1375 50.4548 65.0166 50.5516 64.9306C50.6484 64.8446 50.7754 64.8006 50.9047 64.8083C51.034 64.8159 51.1549 64.8746 51.2409 64.9714L53.717 67.759L56.1931 64.9714C56.2791 64.8746 56.4 64.8159 56.5293 64.8083C56.6586 64.8006 56.7856 64.8446 56.8824 64.9306C56.9792 65.0166 57.0379 65.1375 57.0455 65.2668C57.0532 65.3961 57.0092 65.5231 56.9232 65.6199L54.2053 68.6798V77.364H58.603C58.6669 75.5178 59.0933 73.7947 59.8749 72.2363C60.0155 71.9563 60.1614 71.6791 60.3126 71.4047V71.4048ZM81.4958 71.3457C82.9874 65.7789 79.6713 60.0361 74.1048 58.544C73.2233 58.3072 72.3146 58.187 71.4019 58.1866C66.7869 58.1866 62.553 61.2704 61.3031 65.9351C59.8114 71.5023 63.1271 77.245 68.6941 78.7368C74.2616 80.2283 80.0041 76.9129 81.4958 71.3457ZM76.1125 79.0445L77.1669 80.8708L79.1075 79.7504L78.0532 77.9242C77.4442 78.3598 76.7943 78.735 76.1125 79.0445ZM83.2264 85.9583L79.9969 80.3647L77.2542 81.9481L80.4837 87.5418C80.694 87.9061 81.0357 88.1673 81.4458 88.2772C81.856 88.387 82.2823 88.3317 82.6468 88.1213C83.4029 87.6848 83.6629 86.7145 83.2264 85.9583ZM79.3312 70.7657C78.7636 72.8844 77.4047 74.6552 75.5052 75.752C74.24 76.4823 72.8355 76.8557 71.4128 76.8557C70.6993 76.8557 69.9816 76.7619 69.274 76.5723C64.9004 75.4004 62.2956 70.8889 63.4675 66.5152C64.6395 62.1415 69.1515 59.5369 73.5247 60.7087C77.8983 61.8807 80.503 66.3923 79.3312 70.7658L79.3312 70.7657ZM73.2721 61.6518C72.6619 61.4879 72.0329 61.4047 71.4012 61.4045C68.2067 61.4045 65.276 63.539 64.4108 66.7679C63.9106 68.6346 64.1674 70.5844 65.1336 72.258C66.0999 73.9317 67.6601 75.1288 69.5268 75.6291C71.3935 76.1292 73.3433 75.8728 75.0169 74.9064C76.6905 73.9401 77.8877 72.3799 78.388 70.5132C79.4204 66.66 77.1251 62.6849 73.2721 61.652V61.6518ZM74.2955 65.8795L69.9141 70.261L68.581 67.9519C68.5157 67.8406 68.4092 67.7597 68.2845 67.7268C68.1599 67.6938 68.0272 67.7115 67.9156 67.776C67.8039 67.8404 67.7223 67.9464 67.6885 68.0709C67.6547 68.1953 67.6715 68.3281 67.7353 68.4401L69.3865 71.3003C69.424 71.3652 69.4758 71.4205 69.5381 71.4621C69.6004 71.5037 69.6714 71.5304 69.7456 71.5402C69.8199 71.55 69.8954 71.5425 69.9663 71.5185C70.0372 71.4944 70.1016 71.4543 70.1546 71.4014L74.986 66.5698C75.0314 66.5245 75.0673 66.4707 75.0919 66.4114C75.1164 66.3522 75.129 66.2887 75.129 66.2246C75.129 66.1605 75.1164 66.097 75.0918 66.0377C75.0673 65.9785 75.0313 65.9247 74.986 65.8794C74.9406 65.834 74.8868 65.7981 74.8276 65.7735C74.7683 65.749 74.7049 65.7364 74.6407 65.7364C74.5766 65.7364 74.5131 65.749 74.4539 65.7736C74.3947 65.7981 74.3408 65.8342 74.2955 65.8795Z" fill="#A7CF39"/>
<defs>
<filter id="filter0_d_258_406" x="0" y="0.5" width="121" height="131" filterUnits="userSpaceOnUse" color-interpolation-filters="sRGB">
<feFlood flood-opacity="0" result="BackgroundImageFix"/>
<feColorMatrix in="SourceAlpha" type="matrix" values="0 0 0 0 0 0 0 0 0 0 0 0 0 0 0 0 0 0 127 0" result="hardAlpha"/>
<feOffset/>
<feGaussianBlur stdDeviation="10"/>
<feComposite in2="hardAlpha" operator="out"/>
<feColorMatrix type="matrix" values="0 0 0 0 0 0 0 0 0 0 0 0 0 0 0 0 0 0 0.25 0"/>
<feBlend mode="normal" in2="BackgroundImageFix" result="effect1_dropShadow_258_406"/>
<feBlend mode="normal" in="SourceGraphic" in2="effect1_dropShadow_258_406" result="shape"/>
</filter>
</defs>
</svg>
