<svg width="17" height="18" viewBox="0 0 17 18" fill="none" xmlns="http://www.w3.org/2000/svg">
<path d="M8.60547 17.8782H0.88921C0.397969 17.8782 0 17.4363 0 16.8914V0.986734C0 0.441686 0.398031 0 0.88921 0H15.222C15.713 0 16.1111 0.441686 16.1111 0.986734V16.8914C16.1111 17.4364 15.713 17.8782 15.222 17.8782H11.1164V10.9548H13.2106L13.5242 8.25661H11.1164V6.53399C11.1164 5.7528 11.3119 5.22045 12.3214 5.22045L13.609 5.21983V2.80655C13.3863 2.77366 12.622 2.7002 11.7328 2.7002C9.87639 2.7002 8.60547 3.95762 8.60547 6.26678V8.25661H6.50591V10.9548H8.60547V17.8782Z" fill="black"/>
</svg>
