<svg width="121" height="132" viewBox="0 0 121 132" fill="none" xmlns="http://www.w3.org/2000/svg">
<g filter="url(#filter0_d_258_415)">
<path d="M78.0711 32.3151L78.0914 32.3309L78.1131 32.3445C80.9844 34.142 85.0152 37.6736 87.7389 40.4431L91.3926 44.1585C97.1802 50.0437 100.5 58.4675 100.5 67.3246V69.8637C100.5 73.8827 99.9206 77.8742 98.7854 81.6785L98.7854 81.6787L98.5485 82.4739C98.5485 82.4739 98.5485 82.474 98.5485 82.4741C94.5496 95.8763 84.879 106.041 72.877 109.538L73.0169 110.018L72.877 109.538L72.4426 109.665C67.0222 111.244 61.361 111.425 55.8723 110.193L54.7744 109.947C34.8978 105.486 20.5 85.6392 20.5 62.4881L20.5 58.7298C20.5 53.3278 21.5188 47.9901 23.4861 43.077L25.7511 37.4205C29.7677 27.3898 38.5443 21 48.1624 21L51.5068 21C54.2033 21 57.4869 21.3385 60.636 22.0388C63.7863 22.7394 66.7612 23.7932 68.8764 25.2024C72.8919 28.2189 73.6046 28.7865 74.8852 29.8065C75.5775 30.3578 76.4357 31.0413 78.0711 32.3151Z" stroke="#A7CF39" shape-rendering="crispEdges"/>
</g>
<path d="M50.9594 88.5C50.6398 88.5 50.3859 88.2095 50.4297 87.8928L51.2399 82.0248C51.2594 81.8845 51.3337 81.7577 51.4466 81.6722C51.5595 81.5867 51.7017 81.5495 51.842 81.5687C51.9115 81.5783 51.9784 81.6014 52.039 81.6369C52.0995 81.6723 52.1524 81.7194 52.1948 81.7753C52.2371 81.8312 52.2681 81.8949 52.2858 81.9628C52.3035 82.0306 52.3077 82.1013 52.2981 82.1708L51.488 88.0389C51.4703 88.1665 51.4071 88.2835 51.31 88.3683C51.2129 88.453 51.0884 88.4998 50.9594 88.5ZM69.4331 88.5C69.3041 88.4998 69.1796 88.453 69.0825 88.3683C68.9854 88.2835 68.9222 88.1665 68.9045 88.0389L68.0944 82.1708C68.0848 82.1013 68.089 82.0306 68.1067 81.9628C68.1244 81.8949 68.1553 81.8312 68.1977 81.7753C68.24 81.7194 68.293 81.6723 68.3535 81.6369C68.4141 81.6014 68.481 81.5783 68.5505 81.5687C68.6908 81.5495 68.833 81.5867 68.9459 81.6722C69.0588 81.7577 69.1331 81.8845 69.1526 82.0248L69.9628 87.8928C70.0066 88.2097 69.7526 88.5 69.4331 88.5Z" fill="#A7CF39"/>
<path d="M84.446 66.3379L81.7376 60.1285C80.8176 58.0194 78.4558 56.9113 76.244 57.5507L74.6837 58.0018C73.0828 58.4646 72.2281 60.3043 72.9178 61.8289L73.3221 62.7224C73.8265 63.8368 75.1769 64.3456 76.2913 63.8414L77.7205 67.2489C76.2209 66.7517 74.7234 67.3073 73.8052 68.5614C72.2935 67.3076 69.7791 66.8485 68.2223 68.3101C67.1713 67.7455 65.9991 67.3577 64.849 67.0561C66.1436 66.0551 67.097 64.6785 67.5787 63.1147C68.797 63.0233 69.7602 61.9975 69.7602 60.7498C69.7602 59.8376 69.2483 59.0454 68.4922 58.6496C69.5545 53.8536 66.2849 49.6843 61.8051 48.2995C59.5087 47.5898 57.1022 47.7261 55.8917 50.0615C55.6828 49.7238 55.2588 49.6578 54.9141 49.792C54.0673 50.1213 52.5773 51.9082 51.8506 53.8066C51.2772 55.3046 51.1427 56.9573 51.4475 58.7243C50.7127 59.137 50.2397 59.9019 50.2397 60.7499C50.2397 61.9976 51.203 63.0234 52.4212 63.1148C52.903 64.6785 53.8564 66.0551 55.1509 67.0562C54.0009 67.3577 52.829 67.7454 51.7783 68.3098C50.2212 66.848 47.707 67.307 46.1947 68.5614C45.2771 67.3078 43.7797 66.7514 42.2795 67.2489L43.7086 63.8414C44.8231 64.3456 46.1735 63.8369 46.6778 62.7224L47.0821 61.8289C47.7714 60.3054 46.9177 58.4649 45.3162 58.0018L43.7559 57.5507C41.5444 56.9112 39.1823 58.0194 38.2624 60.1285L35.554 66.3379C34.4231 68.9305 35.0592 71.928 37.1366 73.7969C39.9897 76.3638 43.8534 77.0789 46.79 77.1961L45.3768 87.896C45.3394 88.1791 45.5399 88.4481 45.822 88.4931C46.1149 88.5398 46.397 88.3303 46.4359 88.0358L48.1228 75.2626C48.7014 70.8826 52.419 68.6681 56.4198 67.8575C56.4824 67.8892 56.5442 67.9225 56.6078 67.9526V70.1537C56.6078 72.0239 58.1295 73.5454 60.0003 73.5454C61.8707 73.5454 63.3924 72.0238 63.3924 70.1537V67.9526C63.4558 67.9225 63.5176 67.8892 63.5803 67.8575C67.5804 68.668 71.2986 70.8812 71.8773 75.2626L73.5643 88.0358C73.6032 88.3302 73.8851 88.5398 74.1782 88.4931C74.4601 88.4481 74.6608 88.1792 74.6234 87.896L73.2101 77.1953C76.1469 77.0783 80.01 76.3641 82.8636 73.7968C84.9409 71.928 85.5768 68.9305 84.446 66.3379ZM47.0637 75.1227L46.9304 76.1322C44.1642 76.0344 40.5019 75.3877 37.8509 73.0029C36.1161 71.4421 35.5864 68.9353 36.5332 66.7649L39.2416 60.5555C39.9478 58.9364 41.7611 58.0857 43.4594 58.5769L45.0196 59.028C46.0063 59.3133 46.5363 60.4443 46.1089 61.3887L45.7047 62.2822C45.3108 63.1528 44.3498 63.0253 43.6502 62.6413C43.3334 62.5332 43.0955 62.6265 42.9364 62.921L40.7384 68.1612C40.5392 68.6366 41.0959 69.0988 41.5265 68.8126C42.9531 67.8656 44.8003 67.8914 45.5956 69.6176C45.7494 69.9539 46.2097 70.0329 46.4663 69.7658C47.5427 68.6465 49.3977 67.9662 50.8151 68.9085C48.7838 70.3546 47.3963 72.6053 47.0637 75.1227ZM52.8484 54.1884C53.404 52.7369 54.3918 51.5119 54.9633 51.0153C54.9582 51.0858 54.9523 51.1527 54.9478 51.2063C54.9047 51.7031 54.8557 52.2661 55.3712 52.4286C55.9851 52.6217 56.2576 51.8713 56.4393 51.4377C57.4381 49.0538 59.0276 48.559 61.4896 49.3201C65.3273 50.5064 68.2874 53.9884 67.5054 58.1463L65.2441 55.6737V55.2199C65.2441 53.9047 64.174 52.8348 62.8582 52.8348C62.5632 52.8348 62.3244 53.0739 62.3244 53.3688C62.3244 53.6637 62.5637 53.9029 62.8587 53.9029C63.585 53.9029 64.1758 54.4937 64.1758 55.2199V55.6977C62.0162 58.459 57.7099 58.44 55.5712 55.6621C55.3565 55.3404 54.878 55.2021 54.622 55.5836L52.7486 58.3782C52.6576 58.3793 52.5667 58.385 52.4762 58.3953C52.2367 56.876 52.3605 55.4628 52.8484 54.1884ZM62.324 70.1537C62.324 71.4349 61.2815 72.4772 59.9998 72.4772C58.7183 72.4772 57.6759 71.4349 57.6759 70.1537V68.3653C59.1836 68.8273 60.8163 68.8273 62.324 68.3653V70.1537ZM60 67.6456C56.8494 67.6456 54.1115 65.5058 53.342 62.442C53.313 62.3267 53.2463 62.2243 53.1526 62.1511C53.0588 62.0779 52.9433 62.0381 52.8243 62.038C52.0416 62.038 51.308 61.6427 51.308 60.7501C51.308 59.9032 52.1671 59.3604 52.9574 59.458C53.0555 59.47 53.155 59.4546 53.2449 59.4136C53.3348 59.3725 53.4116 59.3074 53.4667 59.2254L55.1115 56.7721C57.6693 59.541 62.2186 59.5074 64.7337 56.6984L67.0922 59.2773C67.1875 59.3816 67.3203 59.4439 67.4615 59.4504C68.1516 59.4825 68.6922 60.0534 68.6922 60.7501C68.6922 61.4688 68.1131 62.0535 67.4013 62.0535C67.0982 62.0535 66.7535 62.0632 66.6582 62.4421C65.8884 65.5058 63.1506 67.6456 60 67.6456ZM82.1491 73.0029C79.4978 75.3881 75.8359 76.0342 73.0695 76.1318L72.9363 75.1227C72.6038 72.6055 71.2164 70.3551 69.1853 68.9087C70.602 67.9657 72.4576 68.6468 73.5336 69.7656C73.7899 70.0322 74.2475 69.9533 74.4035 69.6194C75.2039 67.8986 77.0367 67.8587 78.4736 68.8125C78.9045 69.0985 79.4614 68.6379 79.2616 68.1611L77.0636 62.9208C76.9046 62.6264 76.6666 62.5332 76.3499 62.6412L75.8529 62.8673C75.2723 63.1316 74.5554 62.857 74.2954 62.2821L73.8911 61.3886C73.4638 60.4443 73.9938 59.3132 74.9804 59.0279L76.5407 58.5768C78.2386 58.0857 80.0522 58.9364 80.7584 60.5554L83.4669 66.7648C84.4135 68.9352 83.8839 71.442 82.1491 73.0029ZM60.1068 44.304C59.9651 44.304 59.8293 44.2477 59.7291 44.1475C59.629 44.0474 59.5727 43.9115 59.5727 43.7699V39.0448C59.5713 38.9737 59.5841 38.9031 59.6103 38.8371C59.6365 38.7711 59.6756 38.711 59.7253 38.6602C59.7751 38.6095 59.8344 38.5692 59.8999 38.5417C59.9654 38.5142 60.0358 38.5 60.1068 38.5C60.1779 38.5 60.2482 38.5142 60.3137 38.5417C60.3792 38.5692 60.4386 38.6095 60.4883 38.6602C60.538 38.711 60.5771 38.7711 60.6033 38.8371C60.6295 38.9031 60.6423 38.9737 60.6409 39.0448V43.7699C60.6409 44.0649 60.4018 44.304 60.1068 44.304ZM51.1999 46.6922C51.106 46.6923 51.0138 46.6676 50.9325 46.6207C50.8512 46.5738 50.7837 46.5063 50.7368 46.425L48.3738 42.3328C48.3054 42.2103 48.288 42.0659 48.3253 41.9306C48.3626 41.7954 48.4516 41.6803 48.5732 41.6101C48.6947 41.54 48.8389 41.5204 48.9747 41.5557C49.1105 41.591 49.2269 41.6783 49.2989 41.7988L51.6619 45.8909C51.8632 46.2395 51.6046 46.6922 51.1999 46.6922ZM44.6789 53.2132C44.5853 53.2132 44.4933 53.1885 44.4124 53.1415L40.3194 50.7789C40.1985 50.7072 40.1108 50.5907 40.0752 50.4548C40.0396 50.3188 40.0591 50.1743 40.1294 50.0526C40.1996 49.9309 40.3151 49.8418 40.4506 49.8046C40.5862 49.7674 40.7309 49.7851 40.8535 49.8539L44.9464 52.2165C45.4078 52.4827 45.2137 53.2132 44.6789 53.2132ZM75.5379 53.2079C75.0031 53.2079 74.8089 52.4775 75.2703 52.2112L79.3631 49.8485C79.4857 49.7797 79.6304 49.762 79.766 49.7992C79.9015 49.8364 80.017 49.9255 80.0872 50.0472C80.1575 50.169 80.177 50.3135 80.1414 50.4494C80.1058 50.5854 80.0181 50.7018 79.8972 50.7736L75.8043 53.1362C75.7234 53.1831 75.6315 53.2078 75.5379 53.2079ZM69.0146 46.6891C68.61 46.6891 68.3512 46.2365 68.5525 45.8878L70.9156 41.7957C70.9875 41.6752 71.104 41.5879 71.2398 41.5526C71.3756 41.5173 71.5198 41.5369 71.6413 41.607C71.7628 41.6772 71.8518 41.7923 71.8891 41.9275C71.9264 42.0628 71.909 42.2072 71.8407 42.3297L69.4776 46.4219C69.4308 46.5032 69.3633 46.5707 69.282 46.6176C69.2007 46.6645 69.1085 46.6892 69.0146 46.6891Z" fill="#A7CF39"/>
<defs>
<filter id="filter0_d_258_415" x="0" y="0.5" width="121" height="131" filterUnits="userSpaceOnUse" color-interpolation-filters="sRGB">
<feFlood flood-opacity="0" result="BackgroundImageFix"/>
<feColorMatrix in="SourceAlpha" type="matrix" values="0 0 0 0 0 0 0 0 0 0 0 0 0 0 0 0 0 0 127 0" result="hardAlpha"/>
<feOffset/>
<feGaussianBlur stdDeviation="10"/>
<feComposite in2="hardAlpha" operator="out"/>
<feColorMatrix type="matrix" values="0 0 0 0 0 0 0 0 0 0 0 0 0 0 0 0 0 0 0.25 0"/>
<feBlend mode="normal" in2="BackgroundImageFix" result="effect1_dropShadow_258_415"/>
<feBlend mode="normal" in="SourceGraphic" in2="effect1_dropShadow_258_415" result="shape"/>
</filter>
</defs>
</svg>
