<svg width="121" height="132" viewBox="0 0 121 132" fill="none" xmlns="http://www.w3.org/2000/svg">
<g filter="url(#filter0_d_258_424)">
<path d="M78.0711 32.3151L78.0914 32.3309L78.1131 32.3445C80.9844 34.142 85.0152 37.6736 87.7389 40.4431L91.3926 44.1585C97.1802 50.0437 100.5 58.4675 100.5 67.3246V69.8637C100.5 73.8827 99.9206 77.8742 98.7854 81.6785L98.7854 81.6787L98.5485 82.4739C98.5485 82.4739 98.5485 82.474 98.5485 82.4741C94.5496 95.8763 84.879 106.041 72.877 109.538L73.0169 110.018L72.877 109.538L72.4426 109.665C67.0222 111.244 61.361 111.425 55.8723 110.193L54.7744 109.947C34.8978 105.486 20.5 85.6392 20.5 62.4881L20.5 58.7298C20.5 53.3278 21.5188 47.9901 23.4861 43.077L25.7511 37.4205C29.7677 27.3898 38.5443 21 48.1624 21L51.5068 21C54.2033 21 57.4869 21.3385 60.636 22.0388C63.7863 22.7394 66.7612 23.7932 68.8764 25.2024C72.8919 28.2189 73.6046 28.7865 74.8852 29.8065C75.5775 30.3578 76.4357 31.0413 78.0711 32.3151Z" stroke="#A7CF39" shape-rendering="crispEdges"/>
</g>
<mask id="path-2-inside-1_258_424" fill="white">
<path d="M59.9125 47.8535C60.4576 47.8535 60.8994 47.4132 60.8994 46.87V42.4835C60.8994 41.9403 60.4576 41.5 59.9125 41.5C59.3674 41.5 58.9255 41.9403 58.9255 42.4835V46.87C58.9256 47.4132 59.3675 47.8535 59.9125 47.8535ZM84.0371 75.2877L82.2936 73.5551C81.6733 72.9379 80.8467 72.5978 79.9659 72.5978C79.4027 72.5978 78.8621 72.7375 78.3829 72.9991L75.0975 69.729L75.2575 69.5697C76.5904 68.2388 76.5899 66.0762 75.2574 64.7499C74.7883 64.2799 74.1908 63.9579 73.5394 63.8241C73.6298 63.5131 73.6756 63.191 73.6755 62.8672C73.6755 61.9537 73.3194 61.097 72.6747 60.4573C72.2057 59.9873 71.6082 59.6653 70.9567 59.5315C71.0471 59.2205 71.093 58.8984 71.0928 58.5746C71.0928 57.661 70.7367 56.8044 70.091 56.1637C69.6215 55.6956 69.0248 55.3747 68.3745 55.2404C68.7112 54.0834 68.4235 52.7818 67.5101 51.87C66.7498 51.1156 65.7182 50.7914 64.724 50.8965L58.2135 49.6685C57.2206 49.4808 55.9806 49.3567 55.1979 50.0681C55.1485 50.113 55.0981 50.1647 55.0485 50.2222C53.8349 49.7814 52.4194 50.0439 51.4476 51.0112C50.8028 51.6529 50.4477 52.5092 50.4477 53.4223C50.4477 53.7512 50.4944 54.0724 50.5835 54.3792C49.9333 54.5128 49.3369 54.834 48.8686 55.303C48.2225 55.9441 47.8663 56.7993 47.8656 57.7114C47.8652 58.036 47.9111 58.3591 48.0019 58.6709C47.3511 58.8043 46.754 59.1252 46.2847 59.5938C45.6387 60.2369 45.283 61.0936 45.283 62.0062C45.283 62.7052 45.4924 63.3711 45.8805 63.9336C45.3852 64.101 44.9353 64.38 44.5658 64.7488C43.2321 66.0762 43.2316 68.2389 44.5667 69.5717L44.7262 69.7299L41.4403 72.9984C40.2191 72.4255 38.7145 72.6401 37.7068 73.643L35.9622 75.3766C35.3417 75.9942 35.0001 76.818 35 77.6963C35 78.5746 35.3417 79.3985 35.9622 80.0162L38.1395 82.1832C38.5251 82.5671 39.15 82.5667 39.5352 82.1824C39.9204 81.7981 39.92 81.1754 39.5344 80.7916L37.3572 78.6246C37.11 78.3786 36.9739 78.0489 36.9739 77.6964C36.9739 77.3439 37.11 77.0143 37.3566 76.7689L39.1012 75.0352C39.5371 74.6013 40.2043 74.5367 40.711 74.8385C40.8118 74.99 40.953 75.1105 41.1187 75.1865L51.1237 85.1419C51.1721 85.248 51.2392 85.3446 51.3216 85.4272C51.4023 85.5074 51.4963 85.5729 51.5995 85.621C51.8122 85.8602 51.9291 86.1691 51.928 86.4887C51.928 86.8412 51.7918 87.1708 51.5447 87.4168L49.8018 89.1516C49.2868 89.6625 48.4491 89.6624 47.9357 89.1531L45.7585 86.9833C45.373 86.5992 44.7482 86.5992 44.3628 86.9833C43.9773 87.3674 43.9773 87.99 44.3628 88.3741L46.5416 90.5455C47.1829 91.1819 48.0251 91.5 48.8677 91.5C49.7105 91.5 50.5536 91.1814 51.1957 90.5444L52.9397 88.8086C53.5602 88.1909 53.9019 87.3671 53.9019 86.4887C53.9019 85.8618 53.727 85.2632 53.4018 84.747L57.0998 81.0663L57.1117 81.0543C57.5351 80.618 58.7144 80.6997 59.8548 80.7786C60.665 80.8347 61.5684 80.8971 62.4509 80.7958L66.5006 84.8265C66.2383 85.3032 66.0982 85.8413 66.0982 86.4016C66.0982 87.2791 66.44 88.1024 67.0605 88.7201L68.8046 90.456C69.4247 91.0732 70.2513 91.4133 71.1321 91.4133C72.0129 91.4133 72.8395 91.0733 73.4597 90.456L84.0378 79.9276C84.6583 79.31 85 78.4862 85 77.6079C84.9999 76.7297 84.6582 75.9058 84.0371 75.2877ZM57.846 51.6011L62.1273 52.4086L59.5647 54.9613C59.1683 54.7714 58.625 54.4173 58.029 53.8491C57.2131 53.0714 56.6295 52.1735 56.5764 51.6134L56.5763 51.6125L56.5762 51.6122C56.573 51.58 56.5715 51.5477 56.5719 51.5154C56.701 51.4841 57.0438 51.4494 57.846 51.6011ZM52.8424 52.403C53.3424 51.9052 54.1191 51.8478 54.6841 52.229C55.0042 53.5667 56.1493 54.7791 56.6645 55.2703C57.0463 55.6344 58.2714 56.7259 59.508 57.0259C59.677 57.2677 59.7672 57.5556 59.7663 57.8503C59.7663 58.2375 59.6168 58.5995 59.3445 58.8706C59.0729 59.1417 58.7091 59.291 58.3198 59.291C57.9305 59.291 57.5666 59.1417 57.2938 58.8694L57.2937 58.8693L57.2932 58.8688L52.8423 54.4414C52.5709 54.1714 52.4215 53.8094 52.4215 53.4223C52.4216 53.0351 52.571 52.6731 52.8424 52.403ZM50.2635 56.6947C50.535 56.4237 50.8985 56.2743 51.2872 56.2743C51.6763 56.2743 52.041 56.424 52.3143 56.696L55.8983 60.2604C56.4626 60.8237 56.4626 61.7403 55.9002 62.3016C55.6272 62.5726 55.2621 62.7218 54.8721 62.7218C54.4822 62.7218 54.1171 62.5726 53.8452 62.3028L53.8451 62.3027L51.1261 59.5938C51.1219 59.5896 51.1173 59.5857 51.113 59.5814L50.2624 58.7341C49.9895 58.4624 49.8392 58.0997 49.8395 57.7128C49.8399 57.3272 49.9897 56.9663 50.2635 56.6947ZM47.6796 60.9855C47.9514 60.7151 48.3156 60.5662 48.7055 60.5662C49.0921 60.5662 49.4532 60.7129 49.7238 60.9787L52.4511 63.6952C52.723 63.9651 52.8729 64.3267 52.8729 64.7134C52.8729 65.1 52.723 65.4617 52.45 65.7327C52.1784 66.003 51.8145 66.1519 51.4253 66.1519C51.0356 66.1519 50.6705 66.0026 50.3985 65.7327L49.4098 64.7486L49.4091 64.7479L47.6797 63.0266C47.4071 62.7552 47.257 62.3927 47.257 62.006C47.257 61.6194 47.4071 61.2568 47.6796 60.9855ZM45.9607 66.1404C46.2337 65.8687 46.5984 65.7191 46.9878 65.7191C47.377 65.7191 47.7417 65.8686 48.0145 66.1401L49.0046 67.1255C49.2766 67.3955 49.4264 67.7571 49.4264 68.1438C49.4264 68.5305 49.2765 68.892 49.0025 69.1641C48.731 69.4351 48.3671 69.5844 47.9778 69.5844C47.5885 69.5844 47.2246 69.4352 46.9511 69.1622L46.8271 69.0391C46.8255 69.0375 46.8242 69.0357 46.8226 69.0341L46.817 69.0291L45.9617 68.1801C45.3973 67.6166 45.3969 66.7016 45.9607 66.1404ZM66.0734 77.3179C65.6881 76.9336 65.0632 76.9333 64.6777 77.3171L63.7996 78.191C62.9652 79.0224 61.4534 78.9178 59.9914 78.8167C58.4037 78.7067 56.7619 78.5932 55.6995 79.6802L52.0643 83.2983L42.9736 74.2527L46.1907 71.0526C46.7225 71.3774 47.336 71.5515 47.978 71.5515C48.8952 71.5515 49.7552 71.1972 50.3976 70.5559C51.0443 69.9141 51.4005 69.0576 51.4005 68.1439C51.4005 68.1354 51.3999 68.127 51.3999 68.1185C51.4085 68.1186 51.417 68.1191 51.4255 68.1191C52.3414 68.1191 53.2008 67.7659 53.844 67.1256C54.4907 66.4838 54.8469 65.6272 54.8469 64.7136C54.8469 64.7051 54.8464 64.6967 54.8464 64.6882C54.855 64.6882 54.8636 64.6888 54.8723 64.6888C55.7879 64.6888 56.6478 64.336 57.2953 63.6933C57.9676 63.0223 58.3001 62.1389 58.2938 61.2574C58.3026 61.2575 58.3114 61.2579 58.3202 61.2579C59.2374 61.2579 60.0973 60.9037 60.7407 60.2614C61.3854 59.6197 61.7405 58.7634 61.7405 57.8503C61.7405 57.2118 61.5663 56.6013 61.2414 56.0725L64.0612 53.2638C64.2637 53.0627 64.5214 52.9258 64.8019 52.8704C64.8313 52.8673 64.8603 52.8626 64.889 52.857C65.3247 52.7971 65.7823 52.9311 66.1155 53.2617C66.6799 53.8251 66.6799 54.7417 66.1176 55.3031L65.2588 56.1553C65.256 56.1581 65.2529 56.1607 65.2501 56.1635L64.261 57.1475C63.8753 57.5313 63.8749 58.154 64.2601 58.5383C64.6454 58.9227 65.2703 58.923 65.6558 58.5392L66.518 57.6812L66.5186 57.6806L66.6489 57.5512C67.2148 56.9924 68.1317 56.9936 68.6971 57.5562C68.9691 57.8261 69.119 58.1877 69.119 58.5744C69.119 58.9611 68.9691 59.3227 68.6949 59.5948L67.8313 60.4572L67.831 60.4576L66.842 61.4391C66.4557 61.8224 66.4545 62.4452 66.8391 62.8299C67.2238 63.2148 67.8486 63.216 68.2348 62.8328L69.2283 61.8467C69.4999 61.5756 69.8637 61.4264 70.253 61.4264C70.6423 61.4264 71.0063 61.5756 71.2798 61.8487C71.5519 62.1187 71.7016 62.4803 71.7016 62.867C71.7016 63.2537 71.5519 63.6153 71.2783 63.8868L69.5564 65.6033C69.1711 65.9875 69.1712 66.6101 69.5566 66.9941C69.6482 67.0855 69.7569 67.158 69.8767 67.2074C69.9964 67.2568 70.1248 67.2822 70.2544 67.282C70.507 67.282 70.7596 67.1859 70.9523 66.9938L71.7962 66.1526C71.801 66.148 71.8062 66.144 71.811 66.1392C72.0825 65.8681 72.4464 65.7189 72.8356 65.7189C73.225 65.7189 73.5889 65.8681 73.8614 66.1402C74.4252 66.7014 74.4247 67.6165 73.8614 68.1788L73.0034 69.0328L73.0024 69.0336L73.0016 69.0346L71.6398 70.39C71.2541 70.7739 71.2538 71.3966 71.6389 71.7809C71.7305 71.8725 71.8393 71.9451 71.9591 71.9946C72.079 72.0442 72.2075 72.0696 72.3372 72.0694C72.5896 72.0694 72.842 71.9735 73.0347 71.7818L73.7008 71.1188L76.8933 74.2965L67.8034 83.3435L64.5465 80.1019C64.7807 79.9523 64.998 79.778 65.1948 79.5821L66.0724 78.7087C66.4582 78.325 66.4586 77.7022 66.0734 77.3179ZM82.6427 78.5359L72.0647 89.0643C71.8172 89.3105 71.486 89.4462 71.132 89.4462C70.7781 89.4462 70.4468 89.3105 70.1993 89.0642L68.4552 87.3283C68.2081 87.0824 68.0719 86.7533 68.0719 86.4016C68.0719 86.0501 68.2081 85.721 68.4552 85.475L79.0333 74.9466C79.2808 74.7003 79.6119 74.5646 79.966 74.5646C80.32 74.5646 80.6512 74.7003 80.8994 74.9472L82.6428 76.6798C82.89 76.9258 83.0261 77.2552 83.0261 77.6078C83.026 77.9604 82.8899 78.29 82.6427 78.5359ZM46.8073 47.0244C46.8988 47.1157 47.0075 47.188 47.1271 47.2373C47.2467 47.2866 47.375 47.3119 47.5044 47.3117C47.7572 47.3117 48.0102 47.2154 48.2029 47.023C48.588 46.6385 48.5874 46.0158 48.2016 45.6321L44.6052 42.0555C44.2195 41.6718 43.5946 41.6723 43.2095 42.0568C42.8245 42.4413 42.8251 43.064 43.2109 43.4477L46.8073 47.0244ZM72.3206 47.3117C72.5729 47.3117 72.8254 47.2158 73.018 47.0241L76.6116 43.4474C76.9972 43.0636 76.9976 42.4408 76.6124 42.0565C76.2273 41.6723 75.6024 41.6719 75.2167 42.0558L71.6231 45.6325C71.2375 46.0163 71.2371 46.6391 71.6223 47.0234C71.7139 47.1149 71.8227 47.1875 71.9425 47.237C72.0624 47.2865 72.1908 47.3119 72.3206 47.3117Z"/>
</mask>
<path d="M59.9125 47.8535C60.4576 47.8535 60.8994 47.4132 60.8994 46.87V42.4835C60.8994 41.9403 60.4576 41.5 59.9125 41.5C59.3674 41.5 58.9255 41.9403 58.9255 42.4835V46.87C58.9256 47.4132 59.3675 47.8535 59.9125 47.8535ZM84.0371 75.2877L82.2936 73.5551C81.6733 72.9379 80.8467 72.5978 79.9659 72.5978C79.4027 72.5978 78.8621 72.7375 78.3829 72.9991L75.0975 69.729L75.2575 69.5697C76.5904 68.2388 76.5899 66.0762 75.2574 64.7499C74.7883 64.2799 74.1908 63.9579 73.5394 63.8241C73.6298 63.5131 73.6756 63.191 73.6755 62.8672C73.6755 61.9537 73.3194 61.097 72.6747 60.4573C72.2057 59.9873 71.6082 59.6653 70.9567 59.5315C71.0471 59.2205 71.093 58.8984 71.0928 58.5746C71.0928 57.661 70.7367 56.8044 70.091 56.1637C69.6215 55.6956 69.0248 55.3747 68.3745 55.2404C68.7112 54.0834 68.4235 52.7818 67.5101 51.87C66.7498 51.1156 65.7182 50.7914 64.724 50.8965L58.2135 49.6685C57.2206 49.4808 55.9806 49.3567 55.1979 50.0681C55.1485 50.113 55.0981 50.1647 55.0485 50.2222C53.8349 49.7814 52.4194 50.0439 51.4476 51.0112C50.8028 51.6529 50.4477 52.5092 50.4477 53.4223C50.4477 53.7512 50.4944 54.0724 50.5835 54.3792C49.9333 54.5128 49.3369 54.834 48.8686 55.303C48.2225 55.9441 47.8663 56.7993 47.8656 57.7114C47.8652 58.036 47.9111 58.3591 48.0019 58.6709C47.3511 58.8043 46.754 59.1252 46.2847 59.5938C45.6387 60.2369 45.283 61.0936 45.283 62.0062C45.283 62.7052 45.4924 63.3711 45.8805 63.9336C45.3852 64.101 44.9353 64.38 44.5658 64.7488C43.2321 66.0762 43.2316 68.2389 44.5667 69.5717L44.7262 69.7299L41.4403 72.9984C40.2191 72.4255 38.7145 72.6401 37.7068 73.643L35.9622 75.3766C35.3417 75.9942 35.0001 76.818 35 77.6963C35 78.5746 35.3417 79.3985 35.9622 80.0162L38.1395 82.1832C38.5251 82.5671 39.15 82.5667 39.5352 82.1824C39.9204 81.7981 39.92 81.1754 39.5344 80.7916L37.3572 78.6246C37.11 78.3786 36.9739 78.0489 36.9739 77.6964C36.9739 77.3439 37.11 77.0143 37.3566 76.7689L39.1012 75.0352C39.5371 74.6013 40.2043 74.5367 40.711 74.8385C40.8118 74.99 40.953 75.1105 41.1187 75.1865L51.1237 85.1419C51.1721 85.248 51.2392 85.3446 51.3216 85.4272C51.4023 85.5074 51.4963 85.5729 51.5995 85.621C51.8122 85.8602 51.9291 86.1691 51.928 86.4887C51.928 86.8412 51.7918 87.1708 51.5447 87.4168L49.8018 89.1516C49.2868 89.6625 48.4491 89.6624 47.9357 89.1531L45.7585 86.9833C45.373 86.5992 44.7482 86.5992 44.3628 86.9833C43.9773 87.3674 43.9773 87.99 44.3628 88.3741L46.5416 90.5455C47.1829 91.1819 48.0251 91.5 48.8677 91.5C49.7105 91.5 50.5536 91.1814 51.1957 90.5444L52.9397 88.8086C53.5602 88.1909 53.9019 87.3671 53.9019 86.4887C53.9019 85.8618 53.727 85.2632 53.4018 84.747L57.0998 81.0663L57.1117 81.0543C57.5351 80.618 58.7144 80.6997 59.8548 80.7786C60.665 80.8347 61.5684 80.8971 62.4509 80.7958L66.5006 84.8265C66.2383 85.3032 66.0982 85.8413 66.0982 86.4016C66.0982 87.2791 66.44 88.1024 67.0605 88.7201L68.8046 90.456C69.4247 91.0732 70.2513 91.4133 71.1321 91.4133C72.0129 91.4133 72.8395 91.0733 73.4597 90.456L84.0378 79.9276C84.6583 79.31 85 78.4862 85 77.6079C84.9999 76.7297 84.6582 75.9058 84.0371 75.2877ZM57.846 51.6011L62.1273 52.4086L59.5647 54.9613C59.1683 54.7714 58.625 54.4173 58.029 53.8491C57.2131 53.0714 56.6295 52.1735 56.5764 51.6134L56.5763 51.6125L56.5762 51.6122C56.573 51.58 56.5715 51.5477 56.5719 51.5154C56.701 51.4841 57.0438 51.4494 57.846 51.6011ZM52.8424 52.403C53.3424 51.9052 54.1191 51.8478 54.6841 52.229C55.0042 53.5667 56.1493 54.7791 56.6645 55.2703C57.0463 55.6344 58.2714 56.7259 59.508 57.0259C59.677 57.2677 59.7672 57.5556 59.7663 57.8503C59.7663 58.2375 59.6168 58.5995 59.3445 58.8706C59.0729 59.1417 58.7091 59.291 58.3198 59.291C57.9305 59.291 57.5666 59.1417 57.2938 58.8694L57.2937 58.8693L57.2932 58.8688L52.8423 54.4414C52.5709 54.1714 52.4215 53.8094 52.4215 53.4223C52.4216 53.0351 52.571 52.6731 52.8424 52.403ZM50.2635 56.6947C50.535 56.4237 50.8985 56.2743 51.2872 56.2743C51.6763 56.2743 52.041 56.424 52.3143 56.696L55.8983 60.2604C56.4626 60.8237 56.4626 61.7403 55.9002 62.3016C55.6272 62.5726 55.2621 62.7218 54.8721 62.7218C54.4822 62.7218 54.1171 62.5726 53.8452 62.3028L53.8451 62.3027L51.1261 59.5938C51.1219 59.5896 51.1173 59.5857 51.113 59.5814L50.2624 58.7341C49.9895 58.4624 49.8392 58.0997 49.8395 57.7128C49.8399 57.3272 49.9897 56.9663 50.2635 56.6947ZM47.6796 60.9855C47.9514 60.7151 48.3156 60.5662 48.7055 60.5662C49.0921 60.5662 49.4532 60.7129 49.7238 60.9787L52.4511 63.6952C52.723 63.9651 52.8729 64.3267 52.8729 64.7134C52.8729 65.1 52.723 65.4617 52.45 65.7327C52.1784 66.003 51.8145 66.1519 51.4253 66.1519C51.0356 66.1519 50.6705 66.0026 50.3985 65.7327L49.4098 64.7486L49.4091 64.7479L47.6797 63.0266C47.4071 62.7552 47.257 62.3927 47.257 62.006C47.257 61.6194 47.4071 61.2568 47.6796 60.9855ZM45.9607 66.1404C46.2337 65.8687 46.5984 65.7191 46.9878 65.7191C47.377 65.7191 47.7417 65.8686 48.0145 66.1401L49.0046 67.1255C49.2766 67.3955 49.4264 67.7571 49.4264 68.1438C49.4264 68.5305 49.2765 68.892 49.0025 69.1641C48.731 69.4351 48.3671 69.5844 47.9778 69.5844C47.5885 69.5844 47.2246 69.4352 46.9511 69.1622L46.8271 69.0391C46.8255 69.0375 46.8242 69.0357 46.8226 69.0341L46.817 69.0291L45.9617 68.1801C45.3973 67.6166 45.3969 66.7016 45.9607 66.1404ZM66.0734 77.3179C65.6881 76.9336 65.0632 76.9333 64.6777 77.3171L63.7996 78.191C62.9652 79.0224 61.4534 78.9178 59.9914 78.8167C58.4037 78.7067 56.7619 78.5932 55.6995 79.6802L52.0643 83.2983L42.9736 74.2527L46.1907 71.0526C46.7225 71.3774 47.336 71.5515 47.978 71.5515C48.8952 71.5515 49.7552 71.1972 50.3976 70.5559C51.0443 69.9141 51.4005 69.0576 51.4005 68.1439C51.4005 68.1354 51.3999 68.127 51.3999 68.1185C51.4085 68.1186 51.417 68.1191 51.4255 68.1191C52.3414 68.1191 53.2008 67.7659 53.844 67.1256C54.4907 66.4838 54.8469 65.6272 54.8469 64.7136C54.8469 64.7051 54.8464 64.6967 54.8464 64.6882C54.855 64.6882 54.8636 64.6888 54.8723 64.6888C55.7879 64.6888 56.6478 64.336 57.2953 63.6933C57.9676 63.0223 58.3001 62.1389 58.2938 61.2574C58.3026 61.2575 58.3114 61.2579 58.3202 61.2579C59.2374 61.2579 60.0973 60.9037 60.7407 60.2614C61.3854 59.6197 61.7405 58.7634 61.7405 57.8503C61.7405 57.2118 61.5663 56.6013 61.2414 56.0725L64.0612 53.2638C64.2637 53.0627 64.5214 52.9258 64.8019 52.8704C64.8313 52.8673 64.8603 52.8626 64.889 52.857C65.3247 52.7971 65.7823 52.9311 66.1155 53.2617C66.6799 53.8251 66.6799 54.7417 66.1176 55.3031L65.2588 56.1553C65.256 56.1581 65.2529 56.1607 65.2501 56.1635L64.261 57.1475C63.8753 57.5313 63.8749 58.154 64.2601 58.5383C64.6454 58.9227 65.2703 58.923 65.6558 58.5392L66.518 57.6812L66.5186 57.6806L66.6489 57.5512C67.2148 56.9924 68.1317 56.9936 68.6971 57.5562C68.9691 57.8261 69.119 58.1877 69.119 58.5744C69.119 58.9611 68.9691 59.3227 68.6949 59.5948L67.8313 60.4572L67.831 60.4576L66.842 61.4391C66.4557 61.8224 66.4545 62.4452 66.8391 62.8299C67.2238 63.2148 67.8486 63.216 68.2348 62.8328L69.2283 61.8467C69.4999 61.5756 69.8637 61.4264 70.253 61.4264C70.6423 61.4264 71.0063 61.5756 71.2798 61.8487C71.5519 62.1187 71.7016 62.4803 71.7016 62.867C71.7016 63.2537 71.5519 63.6153 71.2783 63.8868L69.5564 65.6033C69.1711 65.9875 69.1712 66.6101 69.5566 66.9941C69.6482 67.0855 69.7569 67.158 69.8767 67.2074C69.9964 67.2568 70.1248 67.2822 70.2544 67.282C70.507 67.282 70.7596 67.1859 70.9523 66.9938L71.7962 66.1526C71.801 66.148 71.8062 66.144 71.811 66.1392C72.0825 65.8681 72.4464 65.7189 72.8356 65.7189C73.225 65.7189 73.5889 65.8681 73.8614 66.1402C74.4252 66.7014 74.4247 67.6165 73.8614 68.1788L73.0034 69.0328L73.0024 69.0336L73.0016 69.0346L71.6398 70.39C71.2541 70.7739 71.2538 71.3966 71.6389 71.7809C71.7305 71.8725 71.8393 71.9451 71.9591 71.9946C72.079 72.0442 72.2075 72.0696 72.3372 72.0694C72.5896 72.0694 72.842 71.9735 73.0347 71.7818L73.7008 71.1188L76.8933 74.2965L67.8034 83.3435L64.5465 80.1019C64.7807 79.9523 64.998 79.778 65.1948 79.5821L66.0724 78.7087C66.4582 78.325 66.4586 77.7022 66.0734 77.3179ZM82.6427 78.5359L72.0647 89.0643C71.8172 89.3105 71.486 89.4462 71.132 89.4462C70.7781 89.4462 70.4468 89.3105 70.1993 89.0642L68.4552 87.3283C68.2081 87.0824 68.0719 86.7533 68.0719 86.4016C68.0719 86.0501 68.2081 85.721 68.4552 85.475L79.0333 74.9466C79.2808 74.7003 79.6119 74.5646 79.966 74.5646C80.32 74.5646 80.6512 74.7003 80.8994 74.9472L82.6428 76.6798C82.89 76.9258 83.0261 77.2552 83.0261 77.6078C83.026 77.9604 82.8899 78.29 82.6427 78.5359ZM46.8073 47.0244C46.8988 47.1157 47.0075 47.188 47.1271 47.2373C47.2467 47.2866 47.375 47.3119 47.5044 47.3117C47.7572 47.3117 48.0102 47.2154 48.2029 47.023C48.588 46.6385 48.5874 46.0158 48.2016 45.6321L44.6052 42.0555C44.2195 41.6718 43.5946 41.6723 43.2095 42.0568C42.8245 42.4413 42.8251 43.064 43.2109 43.4477L46.8073 47.0244ZM72.3206 47.3117C72.5729 47.3117 72.8254 47.2158 73.018 47.0241L76.6116 43.4474C76.9972 43.0636 76.9976 42.4408 76.6124 42.0565C76.2273 41.6723 75.6024 41.6719 75.2167 42.0558L71.6231 45.6325C71.2375 46.0163 71.2371 46.6391 71.6223 47.0234C71.7139 47.1149 71.8227 47.1875 71.9425 47.237C72.0624 47.2865 72.1908 47.3119 72.3206 47.3117Z" fill="#A7CF39" stroke="white" mask="url(#path-2-inside-1_258_424)"/>
<path d="M41.0688 83.8052C40.6867 84.1925 40.692 84.8152 41.0807 85.196L41.0836 85.1987C41.2673 85.3793 41.5152 85.4805 41.7733 85.4802C42.0288 85.4802 42.2842 85.3816 42.4778 85.1854C42.8599 84.7981 42.8531 84.174 42.4645 83.7932C42.0759 83.4125 41.4511 83.4179 41.0688 83.8052ZM68.4875 75.9011C68.6376 75.9011 68.7899 75.8671 68.9329 75.7953C69.4195 75.5507 69.615 74.9592 69.3697 74.4743C69.1242 73.9893 68.5306 73.7944 68.044 74.039L68.0385 74.0418C67.5519 74.2864 67.3591 74.8764 67.6045 75.3614C67.7778 75.704 68.1263 75.9011 68.4875 75.9011Z" fill="#A7CF39"/>
<defs>
<filter id="filter0_d_258_424" x="0" y="0.5" width="121" height="131" filterUnits="userSpaceOnUse" color-interpolation-filters="sRGB">
<feFlood flood-opacity="0" result="BackgroundImageFix"/>
<feColorMatrix in="SourceAlpha" type="matrix" values="0 0 0 0 0 0 0 0 0 0 0 0 0 0 0 0 0 0 127 0" result="hardAlpha"/>
<feOffset/>
<feGaussianBlur stdDeviation="10"/>
<feComposite in2="hardAlpha" operator="out"/>
<feColorMatrix type="matrix" values="0 0 0 0 0 0 0 0 0 0 0 0 0 0 0 0 0 0 0.25 0"/>
<feBlend mode="normal" in2="BackgroundImageFix" result="effect1_dropShadow_258_424"/>
<feBlend mode="normal" in="SourceGraphic" in2="effect1_dropShadow_258_424" result="shape"/>
</filter>
</defs>
</svg>
