<svg width="121" height="132" viewBox="0 0 121 132" fill="none" xmlns="http://www.w3.org/2000/svg">
<g filter="url(#filter0_d_258_214)">
<path d="M78.0711 32.0217L78.0914 32.0374L78.1131 32.051C80.9844 33.8486 85.0152 37.3801 87.7389 40.1497L91.3926 43.865C97.1802 49.7502 100.5 58.174 100.5 67.0311V69.5702C100.5 73.5893 99.9206 77.5807 98.7854 81.3851L98.7854 81.3853L98.5485 82.1804C98.5485 82.1805 98.5485 82.1806 98.5485 82.1806C94.5496 95.5828 84.879 105.747 72.877 109.245L73.0169 109.725L72.877 109.245L72.4426 109.372C67.0222 110.951 61.361 111.131 55.8723 109.9L54.7744 109.653C34.8978 105.193 20.5 85.3458 20.5 62.1946L20.5 58.4363C20.5 53.0343 21.5188 47.6966 23.4861 42.7836L25.7511 37.1271C29.7677 27.0963 38.5443 20.7065 48.1624 20.7065L51.5068 20.7065C54.2033 20.7065 57.4869 21.045 60.636 21.7453C63.7863 22.4459 66.7612 23.4998 68.8764 24.9089C72.8919 27.9255 73.6046 28.4931 74.8852 29.513C75.5775 30.0643 76.4357 30.7478 78.0711 32.0217Z" stroke="#A7CF39" shape-rendering="crispEdges"/>
</g>
<mask id="path-2-inside-1_258_214" fill="white">
<path fill-rule="evenodd" clip-rule="evenodd" d="M77.4482 77.5156L68.7729 84.3318C62.408 87.9956 58.4498 87.2056 53.4383 86.2056C52.0679 85.9315 50.6523 85.6501 49.095 85.4423V76.8135C51.7338 76.2495 54.0838 76.5366 56.0884 77.6674C56.1886 77.7239 56.3017 77.7537 56.4168 77.754H63.0365C64.0026 77.754 64.6525 78.7359 64.288 79.6153C64.186 79.8632 64.0125 80.0752 63.7896 80.2242C63.5668 80.3733 63.3046 80.4526 63.0365 80.4522H56.4168C56.0487 80.4522 55.7429 80.7529 55.7429 81.1238C55.7429 81.4947 56.0487 81.796 56.4168 81.796H63.0365C63.4702 81.7966 63.8976 81.6922 64.2822 81.4917C64.6668 81.2913 64.9971 81.0007 65.245 80.6448L65.9019 80.7031C66.9668 80.7031 67.5451 80.2871 68.2689 79.8633L76.2533 75.2539C76.8535 74.9068 77.6293 75.1078 77.9804 75.7041C78.3429 76.4459 77.9465 77.1249 77.4482 77.5156ZM47.753 86.0776C47.753 86.3698 47.5152 86.6071 47.2264 86.6071H44.412C44.1232 86.6071 43.8854 86.3698 43.8854 86.0776V76.5195C43.8854 76.2284 44.1232 75.9906 44.412 75.9906H47.2264C47.5152 75.9906 47.753 76.2284 47.753 76.5195V86.0776ZM55.6242 63.8844C55.7305 63.9433 55.8192 64.0296 55.8809 64.1344C55.9427 64.2391 55.9752 64.3585 55.9753 64.4801C55.947 68.756 55.5393 72.5098 54.7635 75.6521C55.3971 75.8427 56.0099 76.0967 56.5925 76.4103H63.0366C64.5259 76.4103 65.732 77.6176 65.732 79.1035C65.732 79.1867 65.7263 79.27 65.7207 79.3527C66.0454 79.3763 66.3438 79.3394 66.6041 79.2389C65.5848 76.8402 64.9109 74.1345 64.5485 70.9884C63.9992 66.2482 65.0355 63.4655 65.9472 61.0102C66.7285 58.8806 67.4617 57.6832 68.1896 56.5095C68.9654 55.262 69.475 54.4386 69.5203 53.0802L69.7638 46.196C69.7695 45.9927 69.6959 45.7951 69.5429 45.6405C69.022 45.1086 68.1491 45.3918 68.0706 46.2793L67.6006 51.5677C67.527 52.4007 67.3175 53.0445 66.9211 53.6544L64.7579 56.9965C64.1803 57.8912 63.195 58.4042 62.0512 58.4042H60.9639L62.9628 67.5126C62.9854 67.6127 62.9844 67.7167 62.9599 67.8164C62.9353 67.9161 62.8878 68.0087 62.8212 68.0868L60.6467 70.6928C60.3742 71.0161 59.8805 71.0134 59.6161 70.6928L57.4419 68.0866C57.3753 68.0085 57.3278 67.9159 57.3032 67.8162C57.2787 67.7165 57.2777 67.6125 57.3003 67.5124L59.2823 58.4589C53.3591 59.2132 47.1358 67.5419 45.3011 70.1773C45.1751 70.3623 45.1263 70.5893 45.1652 70.8098C45.2894 71.5107 46.1678 71.7761 46.7281 71.0992C48.0362 69.5086 53.6592 64.7541 54.9333 63.9138C55.1372 63.7773 55.4033 63.766 55.6242 63.8844ZM60.1317 51.9848C61.5304 51.9848 62.6686 53.123 62.6686 54.5223C62.6686 55.9215 61.5304 57.0603 60.1317 57.0603C58.733 57.0603 57.5948 55.9215 57.5948 54.5223C57.5948 53.123 58.733 51.9848 60.1317 51.9848ZM60.1317 60.8718L61.5813 67.4785L60.1317 69.213L58.6821 67.4785L60.1317 60.8718ZM79.1753 75.084C79.1696 75.0721 79.164 75.0602 79.1583 75.0489C78.4335 73.798 76.8309 73.3677 75.5795 74.0902L67.7876 78.5881C66.8476 76.34 66.2247 73.7952 65.885 70.8342C65.3717 66.372 66.3261 63.7908 67.278 61.2892C67.9688 59.4256 68.6937 58.2517 69.3336 57.216C70.1547 55.8898 70.8059 54.8427 70.8682 53.1275L71.106 46.2434C71.1512 45.0252 70.1277 44.0287 68.9202 44.0287C67.7763 44.0287 66.8363 44.9455 66.7287 46.1596L66.2587 51.448C66.2077 52.0601 66.0662 52.5018 65.7943 52.9243L63.6311 56.2664C63.5928 56.3212 63.5532 56.375 63.5122 56.4278C64.9553 53.8611 63.1096 50.6411 60.1316 50.6411C57.9911 50.6411 56.2527 52.3818 56.2527 54.5223C56.2527 55.6939 56.7737 56.7455 57.5948 57.4573C52.1973 59.0927 46.8613 65.5547 44.1969 69.4101C43.5139 70.3984 43.7601 71.7722 44.7462 72.4595C45.6919 73.1147 46.9886 72.8967 47.7644 71.9544C48.6874 70.8315 52.538 67.4803 54.6049 65.837C54.5086 69.4504 54.1236 72.6407 53.4554 75.3475C51.9944 75.1046 50.4259 75.1555 48.795 75.5044C48.4609 74.9891 47.8833 74.6471 47.2264 74.6471H44.412C43.3814 74.6471 42.5376 75.4874 42.5376 76.5198V86.0779C42.5376 87.1108 43.3813 87.9517 44.412 87.9517H47.2264C48.0078 87.9517 48.6817 87.4658 48.9592 86.7795C50.4541 86.9817 51.8359 87.2569 53.1779 87.5236C55.3977 87.9687 57.4929 88.3849 59.7127 88.3849C62.5724 88.3849 65.6415 87.6924 69.4865 85.4732L78.2807 78.5726C79.4131 77.6798 79.7756 76.2783 79.1753 75.084Z"/>
</mask>
<path fill-rule="evenodd" clip-rule="evenodd" d="M77.4482 77.5156L68.7729 84.3318C62.408 87.9956 58.4498 87.2056 53.4383 86.2056C52.0679 85.9315 50.6523 85.6501 49.095 85.4423V76.8135C51.7338 76.2495 54.0838 76.5366 56.0884 77.6674C56.1886 77.7239 56.3017 77.7537 56.4168 77.754H63.0365C64.0026 77.754 64.6525 78.7359 64.288 79.6153C64.186 79.8632 64.0125 80.0752 63.7896 80.2242C63.5668 80.3733 63.3046 80.4526 63.0365 80.4522H56.4168C56.0487 80.4522 55.7429 80.7529 55.7429 81.1238C55.7429 81.4947 56.0487 81.796 56.4168 81.796H63.0365C63.4702 81.7966 63.8976 81.6922 64.2822 81.4917C64.6668 81.2913 64.9971 81.0007 65.245 80.6448L65.9019 80.7031C66.9668 80.7031 67.5451 80.2871 68.2689 79.8633L76.2533 75.2539C76.8535 74.9068 77.6293 75.1078 77.9804 75.7041C78.3429 76.4459 77.9465 77.1249 77.4482 77.5156ZM47.753 86.0776C47.753 86.3698 47.5152 86.6071 47.2264 86.6071H44.412C44.1232 86.6071 43.8854 86.3698 43.8854 86.0776V76.5195C43.8854 76.2284 44.1232 75.9906 44.412 75.9906H47.2264C47.5152 75.9906 47.753 76.2284 47.753 76.5195V86.0776ZM55.6242 63.8844C55.7305 63.9433 55.8192 64.0296 55.8809 64.1344C55.9427 64.2391 55.9752 64.3585 55.9753 64.4801C55.947 68.756 55.5393 72.5098 54.7635 75.6521C55.3971 75.8427 56.0099 76.0967 56.5925 76.4103H63.0366C64.5259 76.4103 65.732 77.6176 65.732 79.1035C65.732 79.1867 65.7263 79.27 65.7207 79.3527C66.0454 79.3763 66.3438 79.3394 66.6041 79.2389C65.5848 76.8402 64.9109 74.1345 64.5485 70.9884C63.9992 66.2482 65.0355 63.4655 65.9472 61.0102C66.7285 58.8806 67.4617 57.6832 68.1896 56.5095C68.9654 55.262 69.475 54.4386 69.5203 53.0802L69.7638 46.196C69.7695 45.9927 69.6959 45.7951 69.5429 45.6405C69.022 45.1086 68.1491 45.3918 68.0706 46.2793L67.6006 51.5677C67.527 52.4007 67.3175 53.0445 66.9211 53.6544L64.7579 56.9965C64.1803 57.8912 63.195 58.4042 62.0512 58.4042H60.9639L62.9628 67.5126C62.9854 67.6127 62.9844 67.7167 62.9599 67.8164C62.9353 67.9161 62.8878 68.0087 62.8212 68.0868L60.6467 70.6928C60.3742 71.0161 59.8805 71.0134 59.6161 70.6928L57.4419 68.0866C57.3753 68.0085 57.3278 67.9159 57.3032 67.8162C57.2787 67.7165 57.2777 67.6125 57.3003 67.5124L59.2823 58.4589C53.3591 59.2132 47.1358 67.5419 45.3011 70.1773C45.1751 70.3623 45.1263 70.5893 45.1652 70.8098C45.2894 71.5107 46.1678 71.7761 46.7281 71.0992C48.0362 69.5086 53.6592 64.7541 54.9333 63.9138C55.1372 63.7773 55.4033 63.766 55.6242 63.8844ZM60.1317 51.9848C61.5304 51.9848 62.6686 53.123 62.6686 54.5223C62.6686 55.9215 61.5304 57.0603 60.1317 57.0603C58.733 57.0603 57.5948 55.9215 57.5948 54.5223C57.5948 53.123 58.733 51.9848 60.1317 51.9848ZM60.1317 60.8718L61.5813 67.4785L60.1317 69.213L58.6821 67.4785L60.1317 60.8718ZM79.1753 75.084C79.1696 75.0721 79.164 75.0602 79.1583 75.0489C78.4335 73.798 76.8309 73.3677 75.5795 74.0902L67.7876 78.5881C66.8476 76.34 66.2247 73.7952 65.885 70.8342C65.3717 66.372 66.3261 63.7908 67.278 61.2892C67.9688 59.4256 68.6937 58.2517 69.3336 57.216C70.1547 55.8898 70.8059 54.8427 70.8682 53.1275L71.106 46.2434C71.1512 45.0252 70.1277 44.0287 68.9202 44.0287C67.7763 44.0287 66.8363 44.9455 66.7287 46.1596L66.2587 51.448C66.2077 52.0601 66.0662 52.5018 65.7943 52.9243L63.6311 56.2664C63.5928 56.3212 63.5532 56.375 63.5122 56.4278C64.9553 53.8611 63.1096 50.6411 60.1316 50.6411C57.9911 50.6411 56.2527 52.3818 56.2527 54.5223C56.2527 55.6939 56.7737 56.7455 57.5948 57.4573C52.1973 59.0927 46.8613 65.5547 44.1969 69.4101C43.5139 70.3984 43.7601 71.7722 44.7462 72.4595C45.6919 73.1147 46.9886 72.8967 47.7644 71.9544C48.6874 70.8315 52.538 67.4803 54.6049 65.837C54.5086 69.4504 54.1236 72.6407 53.4554 75.3475C51.9944 75.1046 50.4259 75.1555 48.795 75.5044C48.4609 74.9891 47.8833 74.6471 47.2264 74.6471H44.412C43.3814 74.6471 42.5376 75.4874 42.5376 76.5198V86.0779C42.5376 87.1108 43.3813 87.9517 44.412 87.9517H47.2264C48.0078 87.9517 48.6817 87.4658 48.9592 86.7795C50.4541 86.9817 51.8359 87.2569 53.1779 87.5236C55.3977 87.9687 57.4929 88.3849 59.7127 88.3849C62.5724 88.3849 65.6415 87.6924 69.4865 85.4732L78.2807 78.5726C79.4131 77.6798 79.7756 76.2783 79.1753 75.084Z" fill="#A7CF39" stroke="white" stroke-width="0.5" mask="url(#path-2-inside-1_258_214)"/>
<defs>
<filter id="filter0_d_258_214" x="0" y="0.206543" width="121" height="131" filterUnits="userSpaceOnUse" color-interpolation-filters="sRGB">
<feFlood flood-opacity="0" result="BackgroundImageFix"/>
<feColorMatrix in="SourceAlpha" type="matrix" values="0 0 0 0 0 0 0 0 0 0 0 0 0 0 0 0 0 0 127 0" result="hardAlpha"/>
<feOffset/>
<feGaussianBlur stdDeviation="10"/>
<feComposite in2="hardAlpha" operator="out"/>
<feColorMatrix type="matrix" values="0 0 0 0 0 0 0 0 0 0 0 0 0 0 0 0 0 0 0.25 0"/>
<feBlend mode="normal" in2="BackgroundImageFix" result="effect1_dropShadow_258_214"/>
<feBlend mode="normal" in="SourceGraphic" in2="effect1_dropShadow_258_214" result="shape"/>
</filter>
</defs>
</svg>
