<svg width="121" height="127" viewBox="0 0 121 127" fill="none" xmlns="http://www.w3.org/2000/svg">
<g filter="url(#filter0_d_258_229)">
<path d="M78.0685 26.5658L78.0887 26.5818L78.1105 26.5956C80.9818 28.4179 85.0127 31.9983 87.7365 34.8061L91.3902 38.5728C97.1787 44.54 100.5 53.0826 100.5 62.0656V64.6398C100.5 68.7156 99.9204 72.7634 98.7849 76.6213L98.7849 76.6216L98.548 77.4277C94.5479 91.019 84.8753 101.323 72.8752 104.869L72.4408 104.997C67.0214 106.598 61.3614 106.781 55.8738 105.533L54.7759 105.283C34.9023 100.761 20.5 80.6406 20.5 57.1624L20.5 53.3523C20.5 47.874 21.5191 42.4611 23.487 37.4789L25.752 31.7444C29.7704 21.5708 38.5484 15.0952 48.1624 15.0952L51.5068 15.0952C54.2027 15.0952 57.4859 15.4383 60.6346 16.1482C63.7844 16.8583 66.7588 17.9265 68.8738 19.3549C72.8893 22.4131 73.6019 22.9885 74.8826 24.0226C75.5749 24.5815 76.4331 25.2744 78.0685 26.5658Z" stroke="#A7CF39" shape-rendering="crispEdges"/>
</g>
<g clip-path="url(#clip0_258_229)">
<path d="M61.8544 60.1211L61.8544 60.1211C61.8531 60.397 61.6299 60.6193 61.3552 60.6193H61.3523C61.0763 60.6179 60.8538 60.3938 60.8544 60.1166C60.8544 60.1166 60.8544 60.1165 60.8544 60.1165L60.8786 54.7394C60.8786 54.7394 60.8786 54.7394 60.8786 54.7394C60.8799 54.4637 61.1037 54.2412 61.3786 54.2412H61.3814C61.6567 54.2426 61.88 54.4675 61.8794 54.744C61.8794 54.744 61.8794 54.744 61.8794 54.744L61.8544 60.1211ZM59.0927 54.4758L59.0927 54.4758L59.0669 60.2375C59.0669 60.2375 59.0669 60.2375 59.0669 60.2375C59.0656 60.5124 58.8419 60.7349 58.5669 60.7349H58.5649C58.4323 60.7343 58.3055 60.6811 58.2121 60.5871C58.1187 60.493 58.0665 60.3657 58.0669 60.2331C58.0669 60.2331 58.0669 60.233 58.0669 60.233L58.0927 54.4714C58.0927 54.4714 58.0927 54.4714 58.0927 54.4714C58.0939 54.1966 58.3177 53.974 58.5927 53.974H58.5947C58.8711 53.9754 59.0939 54.1998 59.0927 54.4758ZM64.0669 62.3373L64.0659 62.3373C64.0658 62.3373 64.0658 62.3373 64.0657 62.3373C63.9331 62.3366 63.8061 62.2834 63.7127 62.1892C63.6193 62.0949 63.5671 61.9674 63.5677 61.8347L63.5833 58.405C63.5846 58.1301 63.8076 57.9076 64.0833 57.9076H64.0854C64.3618 57.909 64.5846 58.1334 64.5833 58.4094L64.5677 61.8391C64.5664 62.1148 64.3426 62.3373 64.0677 62.3373H64.0669Z" fill="#A7CF39" stroke="white" stroke-width="0.25"/>
<path d="M42.5012 61.4555C41.7524 60.052 41.3584 58.4646 41.3584 56.8638C41.3584 52.4421 44.308 48.6976 48.3422 47.4932L48.4563 47.7104C47.9896 48.0864 47.5571 48.5234 47.1682 49.0155C46.1173 50.3474 45.46 51.9983 45.2671 53.7905L45.2671 53.7905C45.22 54.2267 45.203 54.6803 45.2177 55.1403C45.224 55.3344 45.3426 55.5078 45.521 55.5849C45.6086 55.6222 45.705 55.6339 45.7989 55.6185C45.8929 55.6031 45.9807 55.5612 46.0518 55.4978L48.3634 53.4308L48.3635 53.4307C48.6319 53.1912 49.0298 53.2092 49.2858 53.4653C49.5415 53.7209 49.561 54.1186 49.323 54.3866L49.3229 54.3867L46.0144 58.1116L42.5012 61.4555ZM42.5012 61.4555C42.9416 62.2827 43.1467 63.1023 43.1467 64.0404V78.9294V79.2314L43.3251 79.0529H46.5998H46.7248V78.9279V60.4302V60.3992L46.7103 60.3719C46.4017 59.7872 46.1376 59.2023 45.9201 58.6179L45.9198 58.6172C45.8546 58.445 45.8916 58.2502 46.0144 58.1117L42.5012 61.4555ZM76.8506 79.0529H76.7256H73.5248H73.3998H73.399V78.9279H73.2748V60.4646V60.4334L73.2895 60.4058C73.6072 59.809 73.8751 59.2128 74.0925 58.6163C74.1549 58.4438 74.118 58.2498 73.9961 58.1123L70.6768 54.386L70.6767 54.3859C70.4387 54.1179 70.4581 53.7203 70.7136 53.4646C70.9696 53.2077 71.3677 53.1894 71.6355 53.4293L71.6356 53.4293L73.9832 55.5348C74.0565 55.6004 74.1476 55.6431 74.245 55.6573C74.3423 55.6715 74.4416 55.6568 74.5306 55.6149C74.7128 55.5285 74.8257 55.3423 74.8171 55.1414L74.8171 55.1411M76.8506 79.0529L74.942 55.1357L74.8171 55.1411M76.8506 79.0529V78.9279M76.8506 79.0529V78.9279M74.8171 55.1411L74.8132 55.0562L74.8132 55.0561L74.8108 55.0017C74.7922 54.5805 74.7747 54.186 74.7318 53.789L74.7318 53.7889C74.5388 51.9968 73.8808 50.3459 72.8299 49.014M74.8171 55.1411L72.8299 49.014M72.8299 49.014C72.4409 48.5217 72.0099 48.0848 71.5419 47.7089M72.8299 49.014L71.5419 47.7089M76.8506 78.9279V64.0388C76.8506 63.1015 77.0557 62.2811 77.4968 61.4539C78.2448 60.0513 78.6404 58.4631 78.6404 56.8622C78.6404 52.4405 75.6908 48.6961 71.6559 47.4917L71.5419 47.7089M76.8506 78.9279L71.5419 47.7089M65.7967 67.1091C65.7322 67.1599 65.6783 67.2228 65.6382 67.2944C65.5981 67.366 65.5724 67.4447 65.5628 67.5262C65.5531 67.6077 65.5597 67.6903 65.582 67.7693C65.6043 67.8483 65.6419 67.9221 65.6928 67.9865C65.9061 68.2575 66.2982 68.3044 66.5701 68.0911M65.7967 67.1091L72.024 62.4607V62.6324C70.6697 64.4727 68.847 66.2977 66.5701 68.0911M65.7967 67.1091C68.76 64.7755 70.9068 62.4076 72.2045 60.0466C72.217 60.0185 72.2326 59.9919 72.249 59.9661C72.4998 59.5029 72.7186 59.0396 72.9037 58.5771L69.8357 55.1333M65.7967 67.1091L73.4385 53.5354M66.5701 68.0911L66.493 67.9928C66.4929 67.9928 66.4928 67.9929 66.4928 67.9929M66.5701 68.0911L66.4928 67.9929M66.4928 67.9929C66.275 68.1636 65.9615 68.1259 65.791 67.9092L65.7909 67.909C65.7502 67.8575 65.7201 67.7985 65.7022 67.7353C65.6844 67.6722 65.6792 67.6061 65.6869 67.5409C65.6946 67.4758 65.7151 67.4128 65.7472 67.3555C65.7793 67.2983 65.8224 67.2479 65.874 67.2074L65.874 67.2073C68.8456 64.8672 71.0058 62.4871 72.314 60.1068L72.3144 60.107L72.3187 60.0974C72.3276 60.0775 72.3394 60.0569 72.3545 60.0333L72.3547 60.0334L72.359 60.0257C72.6118 59.5585 72.8327 59.0908 73.0198 58.6235L73.0485 58.5517L72.997 58.4939L69.9292 55.0503M66.4928 67.9929C68.8336 66.1491 70.6896 64.2744 72.0476 62.3877L72.274 62.073V62.4607V79.5529C72.274 79.8291 72.4977 80.0529 72.774 80.0529H77.1481M69.9292 55.0503L77.1481 80.0529M69.9292 55.0503C69.3347 54.381 69.3671 53.3966 70.0062 52.7568C70.6364 52.1259 71.6453 52.0955 72.3023 52.6842L72.3857 52.5911M69.9292 55.0503L41.6187 61.923C41.9838 62.6074 42.1475 63.2612 42.1475 64.0372V79.5513C42.1475 79.8276 42.3712 80.0513 42.6475 80.0513H47.224C47.501 80.0513 47.724 79.8277 47.724 79.5513V62.4482V62.0575L47.9508 62.3756C48.3246 62.9 48.7212 63.4078 49.1394 63.8975L49.1396 63.8978C49.1896 63.9566 49.2411 64.0139 49.2943 64.0698L49.2945 64.0701L49.2981 64.0739C49.3247 64.102 49.3548 64.1337 49.3993 64.1837L49.3995 64.1839C49.5824 64.3899 49.8985 64.4082 50.1049 64.2244C50.3109 64.0408 50.3294 63.7255 50.1458 63.5183M69.9292 55.0503L69.9291 55.0502L69.8357 55.1333M69.9292 55.0503L69.8357 55.1333M77.1481 80.0529L77.1473 80.0513H77.3498C77.6268 80.0513 77.8498 79.8277 77.8498 79.5513V64.0372C77.8498 63.2612 78.0135 62.6075 78.3786 61.923C79.2032 60.3755 79.6396 58.6254 79.6396 56.8607C79.6396 50.9188 74.805 46.0833 68.8623 46.0833C68.531 46.0833 68.1957 46.0988 67.8651 46.1289L67.8519 46.1301L67.8387 46.1285C65.1339 45.8013 62.3863 47.0716 60.0941 49.7597L59.999 49.8713L59.9039 49.7597C57.6117 47.0708 54.8634 45.8013 52.1586 46.1285L52.1454 46.1301L52.1322 46.1289C51.8015 46.0988 51.4671 46.0833 51.135 46.0833C45.1938 46.0833 40.3584 50.9188 40.3584 56.8607C40.3584 58.6255 40.794 60.3763 41.6187 61.9229L77.1481 80.0529ZM72.3857 52.5911L72.3023 52.6842L73.4999 53.7584L73.7527 53.9851L73.7073 53.6487C73.2885 50.544 71.3295 48.0631 68.6461 47.3091M72.3857 52.5911L73.4385 53.5354M72.3857 52.5911C71.6787 51.9576 70.5943 51.9911 69.9178 52.6685C69.2326 53.3544 69.1967 54.4138 69.8357 55.1333M68.6461 47.3091C68.3718 47.2317 68.095 47.1743 67.8173 47.1368L67.8174 47.1363L67.8063 47.1358C67.7775 47.1345 67.7499 47.1313 67.7239 47.1258L67.724 47.1253L67.7128 47.124C65.1448 46.8226 62.5263 48.2049 60.3962 50.9773M68.6461 47.3091C68.6462 47.3091 68.6462 47.3091 68.6462 47.3091L68.6123 47.4294M68.6461 47.3091L68.6123 47.4294M60.3962 50.9773C60.3009 51.1008 60.1545 51.1732 59.999 51.1732C59.8436 51.1732 59.6972 51.1008 59.6019 50.9773M60.3962 50.9773L60.4951 51.0536M60.3962 50.9773C60.3961 50.9774 60.396 50.9774 60.396 50.9775L60.4951 51.0536M59.6019 50.9773C57.4718 48.2049 54.8525 46.8226 52.2845 47.124L52.2844 47.1235L52.2734 47.1258C52.2455 47.1317 52.2189 47.1351 52.1938 47.1357L52.1938 47.1349L52.1799 47.1368C51.9024 47.1743 51.6263 47.2309 51.351 47.3091M59.6019 50.9773C59.6019 50.9774 59.602 50.9774 59.6021 50.9775L59.5029 51.0536M59.6019 50.9773L59.5029 51.0536M51.351 47.3091C48.6701 48.0624 46.7119 50.5417 46.2916 53.6439L46.2461 53.9797L46.4987 53.7539L47.6964 52.6836L47.6964 52.6836C48.3541 52.0955 49.3623 52.1266 49.9926 52.7568M51.351 47.3091C51.351 47.3091 51.3511 47.3091 51.3512 47.3091L51.385 47.4294M51.351 47.3091C51.3509 47.3092 51.3509 47.3092 51.3508 47.3092L51.385 47.4294M49.9926 52.7568C50.6317 53.3967 50.6641 54.3809 50.0697 55.0495L50.0696 55.0495L47.015 58.4878L46.9633 58.5459L46.9926 58.6179C47.6235 60.1692 48.6008 61.725 49.9008 63.2496L49.9013 63.2502C49.9573 63.315 49.9876 63.3478 50.0227 63.3845C50.055 63.4183 50.09 63.4563 50.1458 63.5183M49.9926 52.7568L50.0811 52.6685M49.9926 52.7568C49.9926 52.7568 49.9926 52.7569 49.9927 52.7569L50.0811 52.6685M50.1458 63.5183C50.1457 63.5182 50.1455 63.518 50.1454 63.5179L50.2389 63.4349M50.1458 63.5183C50.1458 63.5184 50.1459 63.5185 50.146 63.5185L50.2389 63.4349M50.2389 63.4349C50.1826 63.3724 50.1467 63.3333 50.1131 63.2982C50.0795 63.263 50.0506 63.2318 49.9959 63.1685M50.2389 63.4349C50.4686 63.6935 50.4459 64.088 50.1881 64.3177C49.9303 64.5474 49.535 64.5247 49.3061 64.2669C49.2627 64.2183 49.2336 64.1876 49.2072 64.1597L49.2037 64.156C49.1489 64.0984 49.0958 64.0393 49.0443 63.9786C48.6701 63.5404 48.313 63.0878 47.974 62.6218V62.4482H47.849L47.7472 62.5207C47.781 62.5681 47.8149 62.6153 47.849 62.6623V79.5513C47.849 79.8966 47.5701 80.1763 47.224 80.1763H42.6475C42.3021 80.1763 42.0225 79.8966 42.0225 79.5513V64.0372C42.0225 63.2818 41.8639 62.6482 41.5084 61.9818C40.674 60.4169 40.2334 58.6458 40.2334 56.8607C40.2334 50.8497 45.1248 45.9583 51.135 45.9583L49.9959 63.1685M49.9959 63.1685C48.7029 61.6521 47.7334 60.1076 47.1084 58.5708L50.1631 55.1326C50.8021 54.4138 50.7662 53.3544 50.0811 52.6685M49.9959 63.1685L47.6131 52.5904M50.0811 52.6685C49.4045 51.9919 48.3209 51.9576 47.6131 52.5904M47.6131 52.5904L46.5604 53.5312C46.553 53.5798 46.5459 53.6285 46.5393 53.6775L46.4154 53.6607L46.3321 53.5675L46.4437 53.4678C46.912 50.4971 48.8153 48.1514 51.385 47.4294M47.6131 52.5904L52.1967 47.2607M51.385 47.4294C51.6545 47.3529 51.9248 47.2974 52.1967 47.2607M52.1967 47.2607C52.2311 47.2599 52.2654 47.2552 52.299 47.2482C54.8084 46.9536 57.3889 48.3021 59.5029 51.0536M52.1967 47.2607L60.4951 51.0536M59.5029 51.0536C59.6217 51.2076 59.8045 51.2982 59.999 51.2982C60.1936 51.2982 60.3764 51.2076 60.4951 51.0536M60.4951 51.0536C62.6092 48.3021 65.1889 46.9536 67.6982 47.2482M60.4951 51.0536L67.6982 47.2482M67.6982 47.2482C67.7318 47.2552 67.7662 47.2591 67.8006 47.2607C68.0725 47.2974 68.3436 47.3536 68.6123 47.4294M67.6982 47.2482L73.4385 53.5354M68.6123 47.4294C71.1842 48.1521 73.0883 50.4993 73.5552 53.4722L73.6669 53.5723L73.5834 53.6654L73.4595 53.6821C73.4529 53.633 73.4459 53.5841 73.4385 53.5354" fill="#A7CF39" stroke="white" stroke-width="0.25"/>
<mask id="path-4-inside-1_258_229" fill="white">
<path fill-rule="evenodd" clip-rule="evenodd" d="M55.6922 45.4521C55.4766 45.4521 55.2664 45.3396 55.15 45.1396L54.1735 43.4482C54.0008 43.149 54.1032 42.7669 54.4024 42.5951C54.7016 42.4224 55.0836 42.5248 55.2563 42.824L56.2328 44.5154C56.4055 44.8146 56.3024 45.1966 56.0039 45.3685C55.909 45.4237 55.8012 45.4528 55.6914 45.4529L55.6922 45.4521ZM60 43.8513C59.9179 43.8513 59.8366 43.8351 59.7607 43.8037C59.6848 43.7722 59.6159 43.7261 59.5578 43.668C59.4998 43.6099 59.4537 43.5409 59.4224 43.465C59.391 43.389 59.3749 43.3077 59.375 43.2255V41.2732C59.375 40.9279 59.6547 40.6482 60 40.6482C60.3453 40.6482 60.625 40.9271 60.625 41.2732V43.2255C60.625 43.5716 60.3446 43.8513 60 43.8513ZM64.3078 45.4521C64.2016 45.4521 64.0938 45.4248 63.9953 45.3677C63.6969 45.1958 63.5953 44.813 63.7672 44.5146L64.7438 42.8232C64.9157 42.524 65.2985 42.4216 65.5969 42.5943C65.8961 42.7662 65.9985 43.149 65.8258 43.4474L64.8493 45.1388C64.7336 45.3388 64.5235 45.4513 64.3078 45.4513V45.4521ZM56.4125 78.9279H63.8032L63.8203 72.2193C63.8274 70.5544 64.4266 69.5279 64.9547 68.6224C65.4602 67.756 65.9383 66.9373 65.9446 65.5341L65.9766 58.4154C65.9766 58.2474 65.9118 58.0888 65.7914 57.9677C65.6719 57.8458 65.5133 57.7787 65.3453 57.7787C64.9938 57.7787 64.7102 58.0599 64.7086 58.4091C64.7071 58.7537 64.4274 59.0318 64.0836 59.0318H64.0805C63.9984 59.0315 63.9172 59.0149 63.8415 58.9832C63.7658 58.9514 63.6971 58.905 63.6393 58.8467C63.5815 58.7884 63.5358 58.7192 63.5048 58.6432C63.4738 58.5672 63.4581 58.4858 63.4586 58.4037L63.4735 54.7669C63.4758 54.3615 63.1477 54.0302 62.743 54.0294C62.5477 54.0294 62.3633 54.1044 62.2235 54.2435C62.0836 54.3818 62.0055 54.5654 62.0047 54.7607C62.0032 55.1052 61.7227 55.3833 61.3789 55.3833H61.3766C61.0313 55.3818 60.7532 55.1005 60.7539 54.756L60.7618 52.9044C60.7633 52.7005 60.6836 52.5076 60.5391 52.3607C60.396 52.2157 60.2013 52.1334 59.9977 52.1318H59.9946C59.5719 52.1318 59.2274 52.474 59.225 52.8974L59.218 54.4771C59.2164 54.8216 58.9368 55.0998 58.593 55.0998H58.5899C58.2453 55.0982 57.9672 54.8177 57.968 54.4716C57.9696 54.0662 57.6414 53.7349 57.236 53.7333H57.2328C57.0391 53.7333 56.8563 53.8091 56.7164 53.9482C56.6477 54.0157 56.5929 54.0962 56.5554 54.1849C56.5179 54.2737 56.4982 54.369 56.4977 54.4654L56.4657 61.8388C56.4578 63.4294 56.1266 64.3373 55.4524 64.613C54.9266 64.8279 54.3453 64.6193 53.7266 63.9943L52.5922 62.8505C52.5789 62.8365 52.5664 62.8232 52.5547 62.8091C51.8172 61.9162 50.5024 61.8919 49.9766 62.3115C49.8719 62.3951 49.5953 62.6154 50.068 63.2419C51.4953 64.8333 52.6188 65.8716 54.5047 67.3458C55.768 68.2904 56.4305 69.8201 56.4219 71.7701C56.4125 73.8873 56.4133 76.0404 56.4133 78.1232V78.9294L56.4125 78.9279ZM64.4266 80.1779H55.7883C55.443 80.1779 55.1633 79.8982 55.1633 79.5529V78.1224C55.1633 76.038 55.1618 73.8834 55.1719 71.763C55.1789 70.2013 54.7008 69.0498 53.7508 68.3419L53.7399 68.3333C51.8024 66.8185 50.593 65.6998 49.1203 64.0568C49.1086 64.0451 49.1 64.0326 49.0899 64.0201C48.175 62.8294 48.5758 61.8287 49.1969 61.3333C50.2618 60.4841 52.3203 60.5873 53.4985 61.9888L54.6125 63.1138C54.7938 63.2958 54.9157 63.3787 54.9844 63.4154C55.0727 63.2521 55.211 62.7927 55.2157 61.8326L55.2485 54.4591C55.25 53.9302 55.4594 53.4333 55.8368 53.0591C56.2141 52.6857 56.7118 52.4802 57.2414 52.4833C57.5078 52.4849 57.761 52.538 57.9922 52.6349C58.1243 51.6435 58.9782 50.874 60.0024 50.8826C60.5399 50.8849 61.0453 51.0982 61.4258 51.4818C61.8063 51.8654 62.0157 52.3724 62.0118 52.9099V52.9185C62.243 52.8263 62.4922 52.7826 62.7477 52.7802C63.8422 52.7849 64.7289 53.6794 64.7235 54.774L64.7157 56.6365C64.9141 56.5662 65.1274 56.5287 65.35 56.5294C65.8516 56.5318 66.3235 56.7302 66.6789 57.0888C67.0336 57.4466 67.2282 57.9201 67.2258 58.4224L67.1938 65.5412C67.1868 67.2794 66.5743 68.3287 66.0344 69.2537C65.5203 70.1341 65.0766 70.8958 65.0703 72.2248L65.0524 79.5552C65.0524 79.8998 64.7719 80.1787 64.4274 80.1787L64.4266 80.1779Z"/>
</mask>
<path fill-rule="evenodd" clip-rule="evenodd" d="M55.6922 45.4521C55.4766 45.4521 55.2664 45.3396 55.15 45.1396L54.1735 43.4482C54.0008 43.149 54.1032 42.7669 54.4024 42.5951C54.7016 42.4224 55.0836 42.5248 55.2563 42.824L56.2328 44.5154C56.4055 44.8146 56.3024 45.1966 56.0039 45.3685C55.909 45.4237 55.8012 45.4528 55.6914 45.4529L55.6922 45.4521ZM60 43.8513C59.9179 43.8513 59.8366 43.8351 59.7607 43.8037C59.6848 43.7722 59.6159 43.7261 59.5578 43.668C59.4998 43.6099 59.4537 43.5409 59.4224 43.465C59.391 43.389 59.3749 43.3077 59.375 43.2255V41.2732C59.375 40.9279 59.6547 40.6482 60 40.6482C60.3453 40.6482 60.625 40.9271 60.625 41.2732V43.2255C60.625 43.5716 60.3446 43.8513 60 43.8513ZM64.3078 45.4521C64.2016 45.4521 64.0938 45.4248 63.9953 45.3677C63.6969 45.1958 63.5953 44.813 63.7672 44.5146L64.7438 42.8232C64.9157 42.524 65.2985 42.4216 65.5969 42.5943C65.8961 42.7662 65.9985 43.149 65.8258 43.4474L64.8493 45.1388C64.7336 45.3388 64.5235 45.4513 64.3078 45.4513V45.4521ZM56.4125 78.9279H63.8032L63.8203 72.2193C63.8274 70.5544 64.4266 69.5279 64.9547 68.6224C65.4602 67.756 65.9383 66.9373 65.9446 65.5341L65.9766 58.4154C65.9766 58.2474 65.9118 58.0888 65.7914 57.9677C65.6719 57.8458 65.5133 57.7787 65.3453 57.7787C64.9938 57.7787 64.7102 58.0599 64.7086 58.4091C64.7071 58.7537 64.4274 59.0318 64.0836 59.0318H64.0805C63.9984 59.0315 63.9172 59.0149 63.8415 58.9832C63.7658 58.9514 63.6971 58.905 63.6393 58.8467C63.5815 58.7884 63.5358 58.7192 63.5048 58.6432C63.4738 58.5672 63.4581 58.4858 63.4586 58.4037L63.4735 54.7669C63.4758 54.3615 63.1477 54.0302 62.743 54.0294C62.5477 54.0294 62.3633 54.1044 62.2235 54.2435C62.0836 54.3818 62.0055 54.5654 62.0047 54.7607C62.0032 55.1052 61.7227 55.3833 61.3789 55.3833H61.3766C61.0313 55.3818 60.7532 55.1005 60.7539 54.756L60.7618 52.9044C60.7633 52.7005 60.6836 52.5076 60.5391 52.3607C60.396 52.2157 60.2013 52.1334 59.9977 52.1318H59.9946C59.5719 52.1318 59.2274 52.474 59.225 52.8974L59.218 54.4771C59.2164 54.8216 58.9368 55.0998 58.593 55.0998H58.5899C58.2453 55.0982 57.9672 54.8177 57.968 54.4716C57.9696 54.0662 57.6414 53.7349 57.236 53.7333H57.2328C57.0391 53.7333 56.8563 53.8091 56.7164 53.9482C56.6477 54.0157 56.5929 54.0962 56.5554 54.1849C56.5179 54.2737 56.4982 54.369 56.4977 54.4654L56.4657 61.8388C56.4578 63.4294 56.1266 64.3373 55.4524 64.613C54.9266 64.8279 54.3453 64.6193 53.7266 63.9943L52.5922 62.8505C52.5789 62.8365 52.5664 62.8232 52.5547 62.8091C51.8172 61.9162 50.5024 61.8919 49.9766 62.3115C49.8719 62.3951 49.5953 62.6154 50.068 63.2419C51.4953 64.8333 52.6188 65.8716 54.5047 67.3458C55.768 68.2904 56.4305 69.8201 56.4219 71.7701C56.4125 73.8873 56.4133 76.0404 56.4133 78.1232V78.9294L56.4125 78.9279ZM64.4266 80.1779H55.7883C55.443 80.1779 55.1633 79.8982 55.1633 79.5529V78.1224C55.1633 76.038 55.1618 73.8834 55.1719 71.763C55.1789 70.2013 54.7008 69.0498 53.7508 68.3419L53.7399 68.3333C51.8024 66.8185 50.593 65.6998 49.1203 64.0568C49.1086 64.0451 49.1 64.0326 49.0899 64.0201C48.175 62.8294 48.5758 61.8287 49.1969 61.3333C50.2618 60.4841 52.3203 60.5873 53.4985 61.9888L54.6125 63.1138C54.7938 63.2958 54.9157 63.3787 54.9844 63.4154C55.0727 63.2521 55.211 62.7927 55.2157 61.8326L55.2485 54.4591C55.25 53.9302 55.4594 53.4333 55.8368 53.0591C56.2141 52.6857 56.7118 52.4802 57.2414 52.4833C57.5078 52.4849 57.761 52.538 57.9922 52.6349C58.1243 51.6435 58.9782 50.874 60.0024 50.8826C60.5399 50.8849 61.0453 51.0982 61.4258 51.4818C61.8063 51.8654 62.0157 52.3724 62.0118 52.9099V52.9185C62.243 52.8263 62.4922 52.7826 62.7477 52.7802C63.8422 52.7849 64.7289 53.6794 64.7235 54.774L64.7157 56.6365C64.9141 56.5662 65.1274 56.5287 65.35 56.5294C65.8516 56.5318 66.3235 56.7302 66.6789 57.0888C67.0336 57.4466 67.2282 57.9201 67.2258 58.4224L67.1938 65.5412C67.1868 67.2794 66.5743 68.3287 66.0344 69.2537C65.5203 70.1341 65.0766 70.8958 65.0703 72.2248L65.0524 79.5552C65.0524 79.8998 64.7719 80.1787 64.4274 80.1787L64.4266 80.1779Z" fill="#A7CF39" stroke="white" stroke-width="0.5" mask="url(#path-4-inside-1_258_229)"/>
</g>
<defs>
<filter id="filter0_d_258_229" x="0" y="-5.40479" width="121" height="132.255" filterUnits="userSpaceOnUse" color-interpolation-filters="sRGB">
<feFlood flood-opacity="0" result="BackgroundImageFix"/>
<feColorMatrix in="SourceAlpha" type="matrix" values="0 0 0 0 0 0 0 0 0 0 0 0 0 0 0 0 0 0 127 0" result="hardAlpha"/>
<feOffset/>
<feGaussianBlur stdDeviation="10"/>
<feComposite in2="hardAlpha" operator="out"/>
<feColorMatrix type="matrix" values="0 0 0 0 0 0 0 0 0 0 0 0 0 0 0 0 0 0 0.25 0"/>
<feBlend mode="normal" in2="BackgroundImageFix" result="effect1_dropShadow_258_229"/>
<feBlend mode="normal" in="SourceGraphic" in2="effect1_dropShadow_258_229" result="shape"/>
</filter>
<clipPath id="clip0_258_229">
<rect width="40" height="40" fill="white" transform="translate(40 40.4131)"/>
</clipPath>
</defs>
</svg>
