<svg width="121" height="131" viewBox="0 0 121 131" fill="none" xmlns="http://www.w3.org/2000/svg">
<g filter="url(#filter0_d_258_248)">
<path d="M78.0711 31.0217L78.0914 31.0374L78.1131 31.051C80.9844 32.8486 85.0152 36.3801 87.7389 39.1497L91.3926 42.865C97.1802 48.7502 100.5 57.174 100.5 66.0311V68.5702C100.5 72.5893 99.9206 76.5807 98.7854 80.3851L98.7854 80.3853L98.5485 81.1804C98.5485 81.1805 98.5485 81.1806 98.5485 81.1806C94.5496 94.5828 84.879 104.747 72.877 108.245L73.0169 108.725L72.877 108.245L72.4426 108.372C67.0222 109.951 61.361 110.131 55.8723 108.9L54.7744 108.653C34.8978 104.193 20.5 84.3458 20.5 61.1946L20.5 57.4363C20.5 52.0343 21.5188 46.6966 23.4861 41.7836L25.7511 36.1271C29.7677 26.0963 38.5443 19.7065 48.1624 19.7065L51.5068 19.7065C54.2033 19.7065 57.4869 20.045 60.636 20.7453C63.7863 21.4459 66.7612 22.4998 68.8764 23.9089C72.8919 26.9255 73.6046 27.4931 74.8852 28.513C75.5775 29.0643 76.4357 29.7478 78.0711 31.0217Z" stroke="#A7CF39" shape-rendering="crispEdges"/>
</g>
<mask id="path-2-inside-1_258_248" fill="white">
<path fill-rule="evenodd" clip-rule="evenodd" d="M58.0762 56.8759H54.1617C54.046 56.8759 53.9315 56.9069 53.831 56.9647L51.0548 58.5734L51.2283 56.6586C51.2387 56.5403 51.2171 56.4213 51.1657 56.3141C51.1143 56.207 51.035 56.1157 50.9361 56.0497C49.543 55.1229 48.7115 53.5803 48.7115 51.9225C48.7115 49.1907 50.9331 46.9685 53.6649 46.9685H58.0761C58.9637 46.9685 59.8361 47.2133 60.5975 47.6662C58.6875 50.0293 59.2809 53.5107 61.8468 55.1258C60.909 56.2325 59.544 56.8759 58.0762 56.8759ZM67.9883 47.1023H64.532C62.4699 47.1023 60.7934 48.7794 60.7934 50.8415C60.7934 52.903 62.4699 54.5801 64.532 54.5801H67.5992C67.7155 54.5801 67.83 54.6111 67.9305 54.6689L69.867 55.7914L69.756 54.5655C69.7453 54.4471 69.7668 54.328 69.8182 54.2209C69.8697 54.1137 69.9491 54.0224 70.0482 53.9566C71.0994 53.2571 71.7282 52.0925 71.7282 50.8415C71.7281 48.7793 70.0498 47.1023 67.9883 47.1023ZM64.532 55.9001H67.4215L70.3075 57.5725C70.7694 57.8396 71.3437 57.474 71.2956 56.942L71.1039 54.8203C72.3281 53.8614 73.0474 52.4017 73.0474 50.8415C73.0474 48.0519 70.7773 45.7823 67.9882 45.7823H64.5319C63.4345 45.7823 62.4183 46.1346 61.5886 46.7312C60.5543 46.03 59.326 45.649 58.0762 45.649H53.665C50.2057 45.649 47.3916 48.4632 47.3916 51.9225C47.3916 53.89 48.3149 55.7289 49.8791 56.9174L49.6261 59.724C49.5776 60.2608 50.1607 60.6177 50.6148 60.3545L54.3394 58.196H58.0763C60.0636 58.196 61.899 57.2675 63.0864 55.6886C63.5555 55.8289 64.0424 55.9001 64.532 55.9001ZM77.6725 70.1667C77.6725 72.4649 75.8026 74.3348 73.5044 74.3348H70.8018C69.6834 74.3348 68.7256 75.0571 68.4165 76.1318L66.317 83.4441H64.8474L67.4874 74.249C68.0057 72.444 69.6161 71.2314 71.4936 71.2314H73.322C74.188 71.2314 74.8927 70.5267 74.8927 69.6601V64.9533C74.8927 64.4004 74.2475 64.0925 73.8175 64.4403L72.6038 65.4226C72.3823 65.6014 72.1574 65.6815 71.8728 65.6815H64.6679C64.2793 65.6815 63.962 65.3648 63.962 64.975C63.962 64.5858 64.2793 64.2685 64.6679 64.2685H71.0991C71.5531 64.2685 71.9633 64.1236 72.3163 63.8378L74.6519 61.9481C74.7231 61.8905 74.7815 61.8186 74.8234 61.7371C74.8652 61.6556 74.8896 61.5663 74.895 61.4748C74.94 60.7426 75.5495 60.1694 76.2822 60.1694C77.0488 60.1694 77.6723 60.7929 77.6723 61.5589V70.1667H77.6725ZM77.1992 75.6549H70.8019C70.2707 75.6549 69.8325 75.9849 69.6852 76.4963L67.6909 83.444H77.1992C77.3353 83.444 77.451 83.3289 77.451 83.1927V75.906C77.4511 75.7699 77.3354 75.6549 77.1992 75.6549ZM74.2098 56.7766C74.2098 55.6336 75.1395 54.704 76.2824 54.704C77.4254 54.704 78.3556 55.6337 78.3556 56.7766C78.3556 57.9196 77.4253 58.8498 76.2824 58.8498C75.1394 58.8498 74.2098 57.9195 74.2098 56.7766ZM78.1558 59.6036C78.6706 60.0974 78.9926 60.791 78.9926 61.5588V70.1667C78.9926 71.8332 78.2446 73.328 77.0678 74.3348H77.1993C78.0659 74.3348 78.7712 75.0395 78.7712 75.9061V83.1929C78.7712 84.0595 78.0659 84.7641 77.1993 84.7641H63.9716C63.5337 84.7641 63.2162 84.3428 63.337 83.9221L66.219 73.8849C66.9015 71.5084 69.0215 69.9114 71.4938 69.9114H73.3222C73.3887 69.9113 73.4525 69.8848 73.4995 69.8377C73.5465 69.7905 73.5729 69.7267 73.5729 69.6601V66.3364L73.4338 66.4486C72.9809 66.8156 72.4556 67.0014 71.873 67.0014H64.6681C63.5514 67.0014 62.6428 66.0922 62.6428 64.9749C62.6428 63.8577 63.5514 62.9484 64.6681 62.9484H71.0993C71.2518 62.9484 71.3681 62.9075 71.4867 62.8117L73.6143 61.0902C73.7154 60.5088 74.0035 59.9934 74.4096 59.6036C73.4945 58.9953 72.8903 57.9558 72.8903 56.7766C72.8903 54.9061 74.4113 53.3839 76.2824 53.3839C78.1529 53.3839 79.6756 54.9061 79.6756 56.7766C79.6756 57.9558 79.0708 58.9953 78.1558 59.6036ZM54.1418 83.444H53.6831L51.5836 76.1322C51.2745 75.057 50.3168 74.3348 49.1983 74.3348H46.4957C44.1975 74.3348 42.3276 72.4649 42.3276 70.1667V61.5588C42.3276 60.7928 42.9517 60.1693 43.7177 60.1693C44.451 60.1693 45.0599 60.7425 45.1043 61.4747C45.111 61.5807 45.143 61.6836 45.1977 61.7746C45.2524 61.8656 45.3282 61.9421 45.4187 61.9977L53.1138 66.7104C53.7447 67.0968 53.7169 67.6496 53.3633 67.8352C53.1658 67.9392 52.8947 67.8936 52.6019 67.7055C52.5832 67.6944 52.5645 67.6833 52.5452 67.6734L46.0672 64.3655C45.629 64.1425 45.1071 64.4609 45.1071 64.9534V69.6602C45.1071 70.5268 45.8118 71.2315 46.6778 71.2315H48.5062C50.3842 71.2315 51.9941 72.444 52.5124 74.249L55.1525 83.4443H54.1418V83.444ZM42.5497 83.1927C42.5497 83.3288 42.6648 83.444 42.801 83.444H52.3099L50.315 76.4963C50.1677 75.9849 49.7295 75.6549 49.1983 75.6549H42.801C42.6649 75.6549 42.5497 75.7699 42.5497 75.9061V83.1927ZM41.6452 56.7766C41.6452 55.6336 42.5749 54.704 43.7178 54.704C44.8602 54.704 45.7904 55.6337 45.7904 56.7766C45.7904 57.9196 44.8601 58.8498 43.7178 58.8498C42.5749 58.8498 41.6452 57.9195 41.6452 56.7766ZM53.7819 73.8848C53.0988 71.5083 50.9794 69.9113 48.5065 69.9113H46.6781C46.6116 69.9111 46.5478 69.8846 46.5008 69.8375C46.4539 69.7904 46.4274 69.7266 46.4274 69.66V66.0307L51.919 68.8349C52.6103 69.2667 53.3594 69.3287 53.9782 69.0032C55.189 68.3665 55.3701 66.5441 53.8029 65.5848L46.3766 61.0363C46.2681 60.4893 45.9937 59.989 45.5907 59.6035C46.5058 58.9952 47.11 57.9557 47.11 56.7765C47.11 54.906 45.5878 53.3838 43.7179 53.3838C41.8474 53.3838 40.3252 54.906 40.3252 56.7765C40.3252 57.9557 40.9294 58.9952 41.8451 59.6035C41.3297 60.0973 41.0083 60.7909 41.0083 61.5587V70.1666C41.0083 71.8331 41.7557 73.328 42.9319 74.3348H42.801C41.9344 74.3348 41.2297 75.0394 41.2297 75.906V83.1927C41.2297 84.0593 41.9344 84.764 42.801 84.764H56.0292C56.4671 84.764 56.7841 84.3429 56.6632 83.9221L53.7819 73.8848Z"/>
</mask>
<path fill-rule="evenodd" clip-rule="evenodd" d="M58.0762 56.8759H54.1617C54.046 56.8759 53.9315 56.9069 53.831 56.9647L51.0548 58.5734L51.2283 56.6586C51.2387 56.5403 51.2171 56.4213 51.1657 56.3141C51.1143 56.207 51.035 56.1157 50.9361 56.0497C49.543 55.1229 48.7115 53.5803 48.7115 51.9225C48.7115 49.1907 50.9331 46.9685 53.6649 46.9685H58.0761C58.9637 46.9685 59.8361 47.2133 60.5975 47.6662C58.6875 50.0293 59.2809 53.5107 61.8468 55.1258C60.909 56.2325 59.544 56.8759 58.0762 56.8759ZM67.9883 47.1023H64.532C62.4699 47.1023 60.7934 48.7794 60.7934 50.8415C60.7934 52.903 62.4699 54.5801 64.532 54.5801H67.5992C67.7155 54.5801 67.83 54.6111 67.9305 54.6689L69.867 55.7914L69.756 54.5655C69.7453 54.4471 69.7668 54.328 69.8182 54.2209C69.8697 54.1137 69.9491 54.0224 70.0482 53.9566C71.0994 53.2571 71.7282 52.0925 71.7282 50.8415C71.7281 48.7793 70.0498 47.1023 67.9883 47.1023ZM64.532 55.9001H67.4215L70.3075 57.5725C70.7694 57.8396 71.3437 57.474 71.2956 56.942L71.1039 54.8203C72.3281 53.8614 73.0474 52.4017 73.0474 50.8415C73.0474 48.0519 70.7773 45.7823 67.9882 45.7823H64.5319C63.4345 45.7823 62.4183 46.1346 61.5886 46.7312C60.5543 46.03 59.326 45.649 58.0762 45.649H53.665C50.2057 45.649 47.3916 48.4632 47.3916 51.9225C47.3916 53.89 48.3149 55.7289 49.8791 56.9174L49.6261 59.724C49.5776 60.2608 50.1607 60.6177 50.6148 60.3545L54.3394 58.196H58.0763C60.0636 58.196 61.899 57.2675 63.0864 55.6886C63.5555 55.8289 64.0424 55.9001 64.532 55.9001ZM77.6725 70.1667C77.6725 72.4649 75.8026 74.3348 73.5044 74.3348H70.8018C69.6834 74.3348 68.7256 75.0571 68.4165 76.1318L66.317 83.4441H64.8474L67.4874 74.249C68.0057 72.444 69.6161 71.2314 71.4936 71.2314H73.322C74.188 71.2314 74.8927 70.5267 74.8927 69.6601V64.9533C74.8927 64.4004 74.2475 64.0925 73.8175 64.4403L72.6038 65.4226C72.3823 65.6014 72.1574 65.6815 71.8728 65.6815H64.6679C64.2793 65.6815 63.962 65.3648 63.962 64.975C63.962 64.5858 64.2793 64.2685 64.6679 64.2685H71.0991C71.5531 64.2685 71.9633 64.1236 72.3163 63.8378L74.6519 61.9481C74.7231 61.8905 74.7815 61.8186 74.8234 61.7371C74.8652 61.6556 74.8896 61.5663 74.895 61.4748C74.94 60.7426 75.5495 60.1694 76.2822 60.1694C77.0488 60.1694 77.6723 60.7929 77.6723 61.5589V70.1667H77.6725ZM77.1992 75.6549H70.8019C70.2707 75.6549 69.8325 75.9849 69.6852 76.4963L67.6909 83.444H77.1992C77.3353 83.444 77.451 83.3289 77.451 83.1927V75.906C77.4511 75.7699 77.3354 75.6549 77.1992 75.6549ZM74.2098 56.7766C74.2098 55.6336 75.1395 54.704 76.2824 54.704C77.4254 54.704 78.3556 55.6337 78.3556 56.7766C78.3556 57.9196 77.4253 58.8498 76.2824 58.8498C75.1394 58.8498 74.2098 57.9195 74.2098 56.7766ZM78.1558 59.6036C78.6706 60.0974 78.9926 60.791 78.9926 61.5588V70.1667C78.9926 71.8332 78.2446 73.328 77.0678 74.3348H77.1993C78.0659 74.3348 78.7712 75.0395 78.7712 75.9061V83.1929C78.7712 84.0595 78.0659 84.7641 77.1993 84.7641H63.9716C63.5337 84.7641 63.2162 84.3428 63.337 83.9221L66.219 73.8849C66.9015 71.5084 69.0215 69.9114 71.4938 69.9114H73.3222C73.3887 69.9113 73.4525 69.8848 73.4995 69.8377C73.5465 69.7905 73.5729 69.7267 73.5729 69.6601V66.3364L73.4338 66.4486C72.9809 66.8156 72.4556 67.0014 71.873 67.0014H64.6681C63.5514 67.0014 62.6428 66.0922 62.6428 64.9749C62.6428 63.8577 63.5514 62.9484 64.6681 62.9484H71.0993C71.2518 62.9484 71.3681 62.9075 71.4867 62.8117L73.6143 61.0902C73.7154 60.5088 74.0035 59.9934 74.4096 59.6036C73.4945 58.9953 72.8903 57.9558 72.8903 56.7766C72.8903 54.9061 74.4113 53.3839 76.2824 53.3839C78.1529 53.3839 79.6756 54.9061 79.6756 56.7766C79.6756 57.9558 79.0708 58.9953 78.1558 59.6036ZM54.1418 83.444H53.6831L51.5836 76.1322C51.2745 75.057 50.3168 74.3348 49.1983 74.3348H46.4957C44.1975 74.3348 42.3276 72.4649 42.3276 70.1667V61.5588C42.3276 60.7928 42.9517 60.1693 43.7177 60.1693C44.451 60.1693 45.0599 60.7425 45.1043 61.4747C45.111 61.5807 45.143 61.6836 45.1977 61.7746C45.2524 61.8656 45.3282 61.9421 45.4187 61.9977L53.1138 66.7104C53.7447 67.0968 53.7169 67.6496 53.3633 67.8352C53.1658 67.9392 52.8947 67.8936 52.6019 67.7055C52.5832 67.6944 52.5645 67.6833 52.5452 67.6734L46.0672 64.3655C45.629 64.1425 45.1071 64.4609 45.1071 64.9534V69.6602C45.1071 70.5268 45.8118 71.2315 46.6778 71.2315H48.5062C50.3842 71.2315 51.9941 72.444 52.5124 74.249L55.1525 83.4443H54.1418V83.444ZM42.5497 83.1927C42.5497 83.3288 42.6648 83.444 42.801 83.444H52.3099L50.315 76.4963C50.1677 75.9849 49.7295 75.6549 49.1983 75.6549H42.801C42.6649 75.6549 42.5497 75.7699 42.5497 75.9061V83.1927ZM41.6452 56.7766C41.6452 55.6336 42.5749 54.704 43.7178 54.704C44.8602 54.704 45.7904 55.6337 45.7904 56.7766C45.7904 57.9196 44.8601 58.8498 43.7178 58.8498C42.5749 58.8498 41.6452 57.9195 41.6452 56.7766ZM53.7819 73.8848C53.0988 71.5083 50.9794 69.9113 48.5065 69.9113H46.6781C46.6116 69.9111 46.5478 69.8846 46.5008 69.8375C46.4539 69.7904 46.4274 69.7266 46.4274 69.66V66.0307L51.919 68.8349C52.6103 69.2667 53.3594 69.3287 53.9782 69.0032C55.189 68.3665 55.3701 66.5441 53.8029 65.5848L46.3766 61.0363C46.2681 60.4893 45.9937 59.989 45.5907 59.6035C46.5058 58.9952 47.11 57.9557 47.11 56.7765C47.11 54.906 45.5878 53.3838 43.7179 53.3838C41.8474 53.3838 40.3252 54.906 40.3252 56.7765C40.3252 57.9557 40.9294 58.9952 41.8451 59.6035C41.3297 60.0973 41.0083 60.7909 41.0083 61.5587V70.1666C41.0083 71.8331 41.7557 73.328 42.9319 74.3348H42.801C41.9344 74.3348 41.2297 75.0394 41.2297 75.906V83.1927C41.2297 84.0593 41.9344 84.764 42.801 84.764H56.0292C56.4671 84.764 56.7841 84.3429 56.6632 83.9221L53.7819 73.8848Z" fill="#A7CF39" stroke="white" stroke-width="0.5" mask="url(#path-2-inside-1_258_248)"/>
<defs>
<filter id="filter0_d_258_248" x="0" y="-0.793457" width="121" height="131" filterUnits="userSpaceOnUse" color-interpolation-filters="sRGB">
<feFlood flood-opacity="0" result="BackgroundImageFix"/>
<feColorMatrix in="SourceAlpha" type="matrix" values="0 0 0 0 0 0 0 0 0 0 0 0 0 0 0 0 0 0 127 0" result="hardAlpha"/>
<feOffset/>
<feGaussianBlur stdDeviation="10"/>
<feComposite in2="hardAlpha" operator="out"/>
<feColorMatrix type="matrix" values="0 0 0 0 0 0 0 0 0 0 0 0 0 0 0 0 0 0 0.25 0"/>
<feBlend mode="normal" in2="BackgroundImageFix" result="effect1_dropShadow_258_248"/>
<feBlend mode="normal" in="SourceGraphic" in2="effect1_dropShadow_258_248" result="shape"/>
</filter>
</defs>
</svg>
