<svg width="56" height="68" viewBox="0 0 56 68" fill="none" xmlns="http://www.w3.org/2000/svg">
<path d="M20.6369 51.3L20.5369 41.6L32.5369 34.3C40.0369 29.4 43.1369 25.1 43.1369 19.9C43.1369 14 38.8369 9.5 28.7369 9.7C17.8369 9.8 12.6369 15.5 13.0369 26.3H0.136919C-1.36308 9.3 9.53692 0 29.1369 0C47.4369 0 55.9369 8.6 55.9369 18.8C55.9369 27.5 51.3369 33.3 34.6369 44.4V51.2L20.6369 51.3ZM21.1369 62.2V60.8C21.1369 57.7 23.4369 55.4 26.5369 55.4H29.0369C32.1369 55.4 34.4369 57.7 34.4369 60.8V62.2C34.4369 65.3 32.1369 67.6 29.0369 67.6H26.5369C23.4369 67.6 21.1369 65.3 21.1369 62.2Z" fill="black"/>
</svg>
