<svg width="47" height="36" viewBox="0 0 47 36" fill="none" xmlns="http://www.w3.org/2000/svg">
<path d="M4.15874 32.4906C1.55949 29.6315 -6.10352e-05 26.5124 -6.10352e-05 21.3139C-6.10352e-05 12.2165 6.49807 4.1588 15.5954 0L17.9348 3.37902C9.35724 8.05767 7.53777 14.036 7.01791 17.9348C8.31754 17.1551 10.137 16.8951 11.9565 17.1551C16.6351 17.6749 20.2741 21.3139 20.2741 26.2524C20.2741 28.5918 19.2344 30.9311 17.6748 32.7506C15.8554 34.57 13.776 35.3498 11.1767 35.3498C8.31754 35.3498 5.71829 34.0502 4.15874 32.4906ZM30.1512 32.4906C27.552 29.6315 25.9924 26.5124 25.9924 21.3139C25.9924 12.2165 32.4906 4.1588 41.5879 0L43.9273 3.37902C35.3497 8.05767 33.5303 14.036 33.0104 17.9348C34.31 17.1551 36.1295 16.8951 37.949 17.1551C42.6276 17.6749 46.2666 21.5738 46.2666 26.2524C46.2666 28.5918 45.2269 30.9311 43.6674 32.7506C41.8479 34.57 39.7685 35.3498 37.1692 35.3498C34.31 35.3498 31.7108 34.0502 30.1512 32.4906Z" fill="white"/>
</svg>
