<svg width="18" height="16" viewBox="0 0 18 16" fill="none" xmlns="http://www.w3.org/2000/svg">
<path d="M17.074 2.25347C16.482 2.55262 15.8447 2.75493 15.1761 2.84532C15.8588 2.38045 16.3827 1.64332 16.6295 0.765226C15.9903 1.19566 15.2839 1.50881 14.5292 1.67668C13.9278 0.94601 13.0682 0.489746 12.1169 0.489746C10.2927 0.489746 8.81277 2.17384 8.81277 4.2507C8.81277 4.54555 8.84114 4.83179 8.89788 5.10727C6.15075 4.95016 3.71569 3.45439 2.08444 1.17629C1.79979 1.73371 1.63714 2.38045 1.63714 3.06915C1.63714 4.37337 2.22061 5.5248 3.10763 6.19951C2.56672 6.18121 2.05607 6.01011 1.60972 5.73033V5.7766C1.60972 7.59951 2.74923 9.12003 4.26228 9.46438C3.9852 9.55262 3.69299 9.59674 3.39133 9.59674C3.17856 9.59674 2.97051 9.57414 2.76909 9.53002C3.18991 11.0236 4.4098 12.1116 5.85665 12.1406C4.72565 13.15 3.2996 13.7515 1.75157 13.7515C1.48489 13.7515 1.22105 13.7343 0.962891 13.6999C2.42582 14.7652 4.16393 15.3883 6.02971 15.3883C12.1103 15.3883 15.4342 9.65808 15.4342 4.68759C15.4342 4.52403 15.4314 4.36046 15.4257 4.20012C16.0716 3.66961 16.6324 3.00781 17.074 2.25347Z" fill="black"/>
</svg>
