<svg width="18" height="17" viewBox="0 0 18 17" fill="none" xmlns="http://www.w3.org/2000/svg">
<path d="M17.0288 4.10656C16.9587 5.86958 15.8617 8.2796 13.7455 11.3377C11.5553 14.5354 9.69959 16.1332 8.18298 16.1332C7.24516 16.1332 6.45038 15.1611 5.80149 13.2105C5.36668 11.4208 4.93472 9.63117 4.50086 7.84684C4.01774 5.89516 3.50052 4.91985 2.9473 4.91985C2.827 4.91985 2.40734 5.20445 1.68361 5.77471L0.925781 4.67576C1.71961 3.89232 2.50207 3.10568 3.27412 2.32117C4.33129 1.2915 5.12607 0.751084 5.65655 0.694591C6.90698 0.558155 7.67807 1.52067 7.96889 3.57894C8.27866 5.80136 8.49653 7.18278 8.61684 7.72426C8.9787 9.56615 9.37467 10.485 9.80853 10.485C10.1448 10.485 10.6507 9.89018 11.3251 8.69956C11.9996 7.50681 12.3586 6.60079 12.4079 5.97617C12.5045 4.9465 12.1436 4.43486 11.3251 4.43486C10.9396 4.43486 10.5417 4.52653 10.1335 4.7184C10.9292 1.82019 12.4448 0.411059 14.6842 0.493134C16.3429 0.545364 17.1264 1.75197 17.0288 4.10656Z" fill="black"/>
</svg>
