<svg width="17" height="14" viewBox="0 0 17 14" fill="none" xmlns="http://www.w3.org/2000/svg">
<path fill-rule="evenodd" clip-rule="evenodd" d="M16.1983 1.92444C16.6811 2.47078 16.8387 3.71144 16.8387 3.71144C16.8387 3.71144 16.9998 5.16873 16.9998 6.62545V7.99159C16.9998 9.44887 16.8387 10.9056 16.8387 10.9056C16.8387 10.9056 16.6811 12.1463 16.1983 12.6926C15.6462 13.3389 15.0342 13.4057 14.6882 13.4434C14.6501 13.4476 14.6153 13.4514 14.5841 13.4556C12.3296 13.6379 8.94423 13.6435 8.94423 13.6435C8.94423 13.6435 4.75534 13.6007 3.46645 13.4623C3.40538 13.4496 3.33136 13.4396 3.24752 13.4284C2.83926 13.3737 2.19846 13.2878 1.6897 12.6926C1.20687 12.1463 1.04978 10.9056 1.04978 10.9056C1.04978 10.9056 0.888672 9.44887 0.888672 7.99159V6.62545C0.888672 5.16873 1.04978 3.71144 1.04978 3.71144C1.04978 3.71144 1.20687 2.47078 1.6897 1.92444C2.24294 1.27722 2.85561 1.21117 3.20161 1.17386C3.23912 1.16982 3.2735 1.16611 3.30433 1.16204C5.55888 0.979736 8.9407 0.979736 8.9407 0.979736H8.94775C8.94775 0.979736 12.3296 0.979736 14.5841 1.16204C14.6149 1.16612 14.6493 1.16983 14.6869 1.17388C15.0326 1.21119 15.6456 1.27733 16.1983 1.92444ZM7.28022 4.58812L7.28072 9.64699L11.6332 7.12628L7.28022 4.58812Z" fill="black"/>
</svg>
